<svg width="301" height="127" viewBox="0 0 301 127" fill="none" xmlns="http://www.w3.org/2000/svg">
<mask id="path-1-outside-1_45_9236" maskUnits="userSpaceOnUse" x="28.021" y="39.9999" width="253" height="62" fill="black">
<rect fill="white" x="28.021" y="39.9999" width="253" height="62"/>
<path d="M51.205 93.9839C44.9756 93.9839 40.261 92.1919 37.061 88.6079C33.861 85.0239 32.261 80.3946 32.261 74.7199C32.261 69.8986 33.3276 65.4186 35.461 61.2799C36.6983 58.8479 38.2556 56.7146 40.133 54.8799C42.0103 53.0453 44.549 51.5306 47.749 50.3359C50.949 49.1413 54.5756 48.5439 58.629 48.5439C59.9943 48.5439 61.2103 48.6719 62.277 48.9279C63.3436 49.1839 63.877 49.3546 63.877 49.4399C63.877 51.4879 63.7276 53.8346 63.429 56.4799C63.173 59.0826 63.0236 60.4053 62.981 60.4479C62.7676 60.6613 61.8716 61.0026 60.293 61.4719C58.757 61.9413 57.605 62.1759 56.837 62.1759V61.7919C56.837 59.8719 56.5596 58.5279 56.005 57.7599C55.4503 56.9919 54.4903 56.6079 53.125 56.6079C50.0956 56.6079 47.2796 58.2079 44.677 61.4079C42.0743 64.5653 40.773 68.9173 40.773 74.4639C40.773 77.4079 41.4983 80.0533 42.949 82.3999C43.717 83.6373 44.8263 84.6399 46.277 85.4079C47.7703 86.1759 49.5196 86.5599 51.525 86.5599C55.5356 86.5599 59.4396 84.7039 63.237 80.9919C63.4076 80.9919 63.749 81.2693 64.261 81.8239C64.8156 82.3359 65.349 83.0399 65.861 83.9359C66.9276 85.6426 67.461 86.6879 67.461 87.0719C67.461 87.4559 66.7996 88.1813 65.477 89.2479C64.1543 90.2719 62.149 91.3173 59.461 92.3839C56.773 93.4506 54.021 93.9839 51.205 93.9839ZM71.468 79.5839L71.276 57.3759C71.276 53.2373 71.3826 51.0613 71.596 50.8479C72.108 50.3359 72.94 49.8453 74.092 49.3759C75.244 48.9066 76.3533 48.6719 77.42 48.6719C78.4866 48.6719 79.02 48.7573 79.02 48.9279C78.9773 49.3119 78.892 52.1066 78.764 57.3119C78.636 62.5173 78.572 65.9306 78.572 67.5519V68.1279C78.572 68.3413 78.636 68.4479 78.764 68.4479L80.044 67.1679C80.5133 66.7413 81.452 66.1653 82.86 65.4399C84.3106 64.6719 85.6546 64.2879 86.892 64.2879C88.172 64.2879 89.2173 64.5013 90.028 64.9279C90.8813 65.3546 91.5853 65.8666 92.14 66.4639C92.6946 67.0613 93.164 67.9359 93.548 69.0879C93.932 70.1973 94.2093 71.2426 94.38 72.2239C94.5933 73.1626 94.764 74.4639 94.892 76.1279C95.02 78.3893 95.084 81.2479 95.084 84.7039L94.828 93.2159C94.7 93.5573 93.9746 93.8559 92.652 94.1119C91.3293 94.3679 90.2413 94.4959 89.388 94.4959L87.276 94.1759C87.7026 90.3359 87.916 86.6453 87.916 83.1039C87.916 79.5626 87.66 76.8746 87.148 75.0399C86.636 73.2053 85.5906 72.2879 84.012 72.2879C82.988 72.2879 82.028 72.6933 81.132 73.5039C80.236 74.3146 79.6173 75.1253 79.276 75.9359L78.7 77.1519C78.7853 80.0959 78.828 83.2533 78.828 86.6239C78.828 89.9946 78.7213 91.7653 78.508 91.9359C77.228 93.0879 74.8813 93.6639 71.468 93.6639C71.1266 93.6639 70.956 93.5999 70.956 93.4719C71.2973 91.5946 71.468 86.9653 71.468 79.5839ZM115.63 71.6479C115.63 70.4106 114.969 69.7919 113.646 69.7919C111.897 69.7919 110.361 70.6879 109.038 72.4799C107.715 74.2719 107.054 76.4266 107.054 78.9439C107.054 79.5413 107.139 79.8399 107.31 79.8399C108.846 79.7973 110.617 78.9226 112.622 77.2159C114.627 75.4666 115.63 73.6106 115.63 71.6479ZM121.198 91.9999C119.747 92.9813 116.91 93.4719 112.686 93.4719C108.462 93.4719 105.219 92.2133 102.958 89.6959C100.697 87.1786 99.566 83.8293 99.566 79.6479C99.566 75.4239 100.91 71.7759 103.598 68.7039C106.329 65.5893 110.147 64.0319 115.054 64.0319C117.059 64.0319 118.894 64.5653 120.558 65.6319C122.265 66.6986 123.118 68.5759 123.118 71.2639C123.118 73.9093 121.945 76.5333 119.598 79.1359C117.294 81.7386 114.137 83.7226 110.126 85.0879C110.126 85.5999 110.638 86.0266 111.662 86.3679C112.729 86.6666 113.774 86.8159 114.798 86.8159C118.041 86.8159 120.601 86.2399 122.478 85.0879C122.521 85.0453 122.585 85.0239 122.67 85.0239C122.755 85.0239 122.798 85.4293 122.798 86.2399C122.798 88.7146 122.265 90.6346 121.198 91.9999ZM136.292 67.2959L136.612 92.8959C136.612 94.5599 136.57 95.6053 136.484 96.0319C134.863 97.2266 132.708 97.8239 130.02 97.8239L128.228 97.5039C128.868 92.7679 129.188 84.0213 129.188 71.2639C129.188 68.0639 129.167 65.7173 129.124 64.2239L126.308 64.3519C126.095 64.1386 125.988 63.1999 125.988 61.5359C125.988 59.8719 126.18 58.8479 126.564 58.4639C127.332 58.4213 128.164 58.3786 129.06 58.3359L128.932 50.5919C128.847 49.9093 130.426 48.7786 133.668 47.1999C136.911 45.6213 139.556 44.8319 141.604 44.8319C141.86 44.8319 142.18 45.3226 142.564 46.3039C142.991 47.2426 143.204 47.9893 143.204 48.5439C143.204 49.0559 143.183 49.3759 143.14 49.5039C143.012 49.5039 142.458 49.7386 141.476 50.2079C140.495 50.6346 139.471 51.2106 138.404 51.9359C137.338 52.6186 136.783 53.2159 136.74 53.7279C136.57 54.8373 136.442 56.3519 136.356 58.2719H136.612C140.068 58.2719 141.796 58.3359 141.796 58.4639C141.796 60.4693 141.391 62.1333 140.58 63.4559C140.282 63.9679 140.026 64.2239 139.812 64.2239C138.447 64.1386 137.274 64.0959 136.292 64.0959V67.2959ZM154.264 86.8799L154.712 60.2559C154.712 58.0799 154.648 56.9493 154.52 56.8639C154.435 56.7359 154.093 56.6719 153.496 56.6719C152.173 56.6719 149.827 56.8853 146.456 57.3119L144.728 57.5679L144.536 55.9039C144.536 53.8559 144.877 52.0639 145.56 50.5279L145.944 49.7599C149.272 49.7173 153.027 49.5893 157.208 49.3759C161.432 49.1199 165.229 48.9919 168.6 48.9919C172.013 48.9919 173.72 49.0773 173.72 49.2479C173.72 50.4853 173.613 51.9786 173.4 53.7279C173.187 55.4346 172.931 56.4373 172.632 56.7359C171.651 56.5226 169.837 56.4159 167.192 56.4159C164.547 56.4159 163.16 56.4799 163.032 56.6079C162.733 56.9066 162.584 62.4746 162.584 73.3119C162.584 84.1493 163.224 90.7413 164.504 93.0879V93.1519C164.504 93.5359 163.672 93.8986 162.008 94.2399C160.344 94.5813 159.021 94.7519 158.04 94.7519C156.675 94.7519 155.565 94.5599 154.712 94.1759C154.413 93.8346 154.264 91.4026 154.264 86.8799ZM179.202 53.7919C180.397 53.7919 181.357 54.1759 182.082 54.9439C182.808 55.7119 183.17 56.7146 183.17 57.9519C183.17 59.1893 182.68 60.2559 181.698 61.1519C180.76 62.0053 179.693 62.4319 178.498 62.4319C177.346 62.4319 176.408 62.0693 175.682 61.3439C175 60.5759 174.658 59.5733 174.658 58.3359C174.658 57.0986 175.128 56.0319 176.066 55.1359C177.005 54.2399 178.05 53.7919 179.202 53.7919ZM182.466 69.7279L182.338 80.0959C182.338 83.4239 182.424 85.8773 182.594 87.4559C182.808 88.9919 183.362 90.4426 184.258 91.8079C184.258 92.2346 183.384 92.9173 181.634 93.8559C179.885 94.7946 178.392 95.2639 177.154 95.2639C176.77 95.2639 176.386 94.6239 176.002 93.3439C175.618 92.0639 175.362 90.8479 175.234 89.6959C175.149 88.5439 175.106 84.6613 175.106 78.0479C175.106 71.4346 175.256 67.8293 175.554 67.2319C176.536 66.4639 178.264 66.0799 180.738 66.0799C181.72 66.0799 182.317 66.2079 182.53 66.4639L182.466 69.7279ZM189.169 84.0639L188.977 69.0239C188.977 66.2933 189.084 64.8213 189.297 64.6079C189.809 64.1386 190.598 63.7119 191.665 63.3279C192.732 62.9013 193.756 62.6879 194.737 62.6879C195.718 62.6879 196.209 62.7733 196.209 62.9439C196.038 64.8213 195.953 66.2506 195.953 67.2319C195.953 68.2133 195.996 68.7039 196.081 68.7039C196.166 68.7039 196.294 68.6186 196.465 68.4479C196.636 68.2346 196.934 67.9359 197.361 67.5519C197.83 67.1253 198.662 66.5706 199.857 65.8879C201.094 65.1626 202.225 64.7999 203.249 64.7999C206.022 64.7999 208.113 66.0373 209.521 68.5119C211.953 65.0986 214.641 63.3919 217.585 63.3919C220.23 63.3919 222.129 64.5226 223.281 66.7839C224.476 69.3013 225.18 71.8186 225.393 74.3359C225.649 78.0053 225.777 81.8026 225.777 85.7279L225.521 93.2159C225.521 93.5146 224.817 93.7919 223.409 94.0479C222.001 94.3466 220.87 94.4959 220.017 94.4959L217.969 94.1759C218.438 89.9519 218.673 86.5386 218.673 83.9359C218.673 81.3333 218.63 79.4773 218.545 78.3679C218.502 77.2159 218.353 76.0853 218.097 74.9759C217.841 73.8239 217.436 73.0133 216.881 72.5439C216.369 72.0319 215.708 71.7759 214.897 71.7759C214.086 71.7759 213.361 72.0106 212.721 72.4799C212.081 72.9066 211.612 73.3333 211.313 73.7599C211.057 74.1866 210.929 74.4639 210.929 74.5919C211.057 75.9573 211.121 79.1146 211.121 84.0639L210.865 89.1199C210.865 89.4613 210.182 89.7599 208.817 90.0159C207.452 90.2719 206.342 90.3999 205.489 90.3999L203.441 90.0799C203.825 86.6239 204.017 83.4026 204.017 80.4159C204.017 77.3866 203.846 75.2746 203.505 74.0799C203.206 72.8426 202.374 72.2239 201.009 72.2239C199.644 72.2239 198.492 72.9066 197.553 74.2719C196.614 75.6373 196.145 76.6826 196.145 77.4079V78.7519L196.209 85.5359C196.209 89.7173 196.124 91.9146 195.953 92.1279C194.886 93.1519 192.646 93.6639 189.233 93.6639C188.892 93.6639 188.721 93.5999 188.721 93.4719C189.02 91.6373 189.169 88.5013 189.169 84.0639ZM246.317 71.6479C246.317 70.4106 245.656 69.7919 244.333 69.7919C242.584 69.7919 241.048 70.6879 239.725 72.4799C238.403 74.2719 237.741 76.4266 237.741 78.9439C237.741 79.5413 237.827 79.8399 237.997 79.8399C239.533 79.7973 241.304 78.9226 243.309 77.2159C245.315 75.4666 246.317 73.6106 246.317 71.6479ZM251.885 91.9999C250.435 92.9813 247.597 93.4719 243.373 93.4719C239.149 93.4719 235.907 92.2133 233.645 89.6959C231.384 87.1786 230.253 83.8293 230.253 79.6479C230.253 75.4239 231.597 71.7759 234.285 68.7039C237.016 65.5893 240.835 64.0319 245.741 64.0319C247.747 64.0319 249.581 64.5653 251.245 65.6319C252.952 66.6986 253.805 68.5759 253.805 71.2639C253.805 73.9093 252.632 76.5333 250.285 79.1359C247.981 81.7386 244.824 83.7226 240.813 85.0879C240.813 85.5999 241.325 86.0266 242.349 86.3679C243.416 86.6666 244.461 86.8159 245.485 86.8159C248.728 86.8159 251.288 86.2399 253.165 85.0879C253.208 85.0453 253.272 85.0239 253.357 85.0239C253.443 85.0239 253.485 85.4293 253.485 86.2399C253.485 88.7146 252.952 90.6346 251.885 91.9999ZM258.724 83.3599L258.596 68.8319C258.596 66.3146 258.681 64.9706 258.852 64.7999C259.321 64.3306 260.132 63.9253 261.284 63.5839C262.436 63.1999 263.503 63.0079 264.484 63.0079C265.508 63.0079 266.02 63.1146 266.02 63.3279C265.892 64.4799 265.828 65.8026 265.828 67.2959C265.828 68.7466 265.871 69.4719 265.956 69.4719C266.041 69.4719 266.127 69.4293 266.212 69.3439C266.297 69.2159 266.425 69.0453 266.596 68.8319C266.809 68.5759 267.215 68.1493 267.812 67.5519C268.452 66.9546 269.135 66.4426 269.86 66.0159C271.695 64.8213 273.657 64.2239 275.748 64.2239C276.089 64.7786 276.26 65.6319 276.26 66.7839C276.26 69.2159 275.961 70.9439 275.364 71.9679L275.108 72.4799L274.276 72.3519C271.204 72.3519 268.793 73.6106 267.044 76.1279C266.361 77.1519 266.02 77.9199 266.02 78.4319V84.0639C266.02 89.1839 265.956 91.8079 265.828 91.9359C264.633 93.0879 262.287 93.6639 258.788 93.6639C258.447 93.6639 258.276 93.5999 258.276 93.4719C258.575 91.8079 258.724 88.4373 258.724 83.3599Z"/>
</mask>
<path d="M51.205 93.9839C44.9756 93.9839 40.261 92.1919 37.061 88.6079C33.861 85.0239 32.261 80.3946 32.261 74.7199C32.261 69.8986 33.3276 65.4186 35.461 61.2799C36.6983 58.8479 38.2556 56.7146 40.133 54.8799C42.0103 53.0453 44.549 51.5306 47.749 50.3359C50.949 49.1413 54.5756 48.5439 58.629 48.5439C59.9943 48.5439 61.2103 48.6719 62.277 48.9279C63.3436 49.1839 63.877 49.3546 63.877 49.4399C63.877 51.4879 63.7276 53.8346 63.429 56.4799C63.173 59.0826 63.0236 60.4053 62.981 60.4479C62.7676 60.6613 61.8716 61.0026 60.293 61.4719C58.757 61.9413 57.605 62.1759 56.837 62.1759V61.7919C56.837 59.8719 56.5596 58.5279 56.005 57.7599C55.4503 56.9919 54.4903 56.6079 53.125 56.6079C50.0956 56.6079 47.2796 58.2079 44.677 61.4079C42.0743 64.5653 40.773 68.9173 40.773 74.4639C40.773 77.4079 41.4983 80.0533 42.949 82.3999C43.717 83.6373 44.8263 84.6399 46.277 85.4079C47.7703 86.1759 49.5196 86.5599 51.525 86.5599C55.5356 86.5599 59.4396 84.7039 63.237 80.9919C63.4076 80.9919 63.749 81.2693 64.261 81.8239C64.8156 82.3359 65.349 83.0399 65.861 83.9359C66.9276 85.6426 67.461 86.6879 67.461 87.0719C67.461 87.4559 66.7996 88.1813 65.477 89.2479C64.1543 90.2719 62.149 91.3173 59.461 92.3839C56.773 93.4506 54.021 93.9839 51.205 93.9839ZM71.468 79.5839L71.276 57.3759C71.276 53.2373 71.3826 51.0613 71.596 50.8479C72.108 50.3359 72.94 49.8453 74.092 49.3759C75.244 48.9066 76.3533 48.6719 77.42 48.6719C78.4866 48.6719 79.02 48.7573 79.02 48.9279C78.9773 49.3119 78.892 52.1066 78.764 57.3119C78.636 62.5173 78.572 65.9306 78.572 67.5519V68.1279C78.572 68.3413 78.636 68.4479 78.764 68.4479L80.044 67.1679C80.5133 66.7413 81.452 66.1653 82.86 65.4399C84.3106 64.6719 85.6546 64.2879 86.892 64.2879C88.172 64.2879 89.2173 64.5013 90.028 64.9279C90.8813 65.3546 91.5853 65.8666 92.14 66.4639C92.6946 67.0613 93.164 67.9359 93.548 69.0879C93.932 70.1973 94.2093 71.2426 94.38 72.2239C94.5933 73.1626 94.764 74.4639 94.892 76.1279C95.02 78.3893 95.084 81.2479 95.084 84.7039L94.828 93.2159C94.7 93.5573 93.9746 93.8559 92.652 94.1119C91.3293 94.3679 90.2413 94.4959 89.388 94.4959L87.276 94.1759C87.7026 90.3359 87.916 86.6453 87.916 83.1039C87.916 79.5626 87.66 76.8746 87.148 75.0399C86.636 73.2053 85.5906 72.2879 84.012 72.2879C82.988 72.2879 82.028 72.6933 81.132 73.5039C80.236 74.3146 79.6173 75.1253 79.276 75.9359L78.7 77.1519C78.7853 80.0959 78.828 83.2533 78.828 86.6239C78.828 89.9946 78.7213 91.7653 78.508 91.9359C77.228 93.0879 74.8813 93.6639 71.468 93.6639C71.1266 93.6639 70.956 93.5999 70.956 93.4719C71.2973 91.5946 71.468 86.9653 71.468 79.5839ZM115.63 71.6479C115.63 70.4106 114.969 69.7919 113.646 69.7919C111.897 69.7919 110.361 70.6879 109.038 72.4799C107.715 74.2719 107.054 76.4266 107.054 78.9439C107.054 79.5413 107.139 79.8399 107.31 79.8399C108.846 79.7973 110.617 78.9226 112.622 77.2159C114.627 75.4666 115.63 73.6106 115.63 71.6479ZM121.198 91.9999C119.747 92.9813 116.91 93.4719 112.686 93.4719C108.462 93.4719 105.219 92.2133 102.958 89.6959C100.697 87.1786 99.566 83.8293 99.566 79.6479C99.566 75.4239 100.91 71.7759 103.598 68.7039C106.329 65.5893 110.147 64.0319 115.054 64.0319C117.059 64.0319 118.894 64.5653 120.558 65.6319C122.265 66.6986 123.118 68.5759 123.118 71.2639C123.118 73.9093 121.945 76.5333 119.598 79.1359C117.294 81.7386 114.137 83.7226 110.126 85.0879C110.126 85.5999 110.638 86.0266 111.662 86.3679C112.729 86.6666 113.774 86.8159 114.798 86.8159C118.041 86.8159 120.601 86.2399 122.478 85.0879C122.521 85.0453 122.585 85.0239 122.67 85.0239C122.755 85.0239 122.798 85.4293 122.798 86.2399C122.798 88.7146 122.265 90.6346 121.198 91.9999ZM136.292 67.2959L136.612 92.8959C136.612 94.5599 136.57 95.6053 136.484 96.0319C134.863 97.2266 132.708 97.8239 130.02 97.8239L128.228 97.5039C128.868 92.7679 129.188 84.0213 129.188 71.2639C129.188 68.0639 129.167 65.7173 129.124 64.2239L126.308 64.3519C126.095 64.1386 125.988 63.1999 125.988 61.5359C125.988 59.8719 126.18 58.8479 126.564 58.4639C127.332 58.4213 128.164 58.3786 129.06 58.3359L128.932 50.5919C128.847 49.9093 130.426 48.7786 133.668 47.1999C136.911 45.6213 139.556 44.8319 141.604 44.8319C141.86 44.8319 142.18 45.3226 142.564 46.3039C142.991 47.2426 143.204 47.9893 143.204 48.5439C143.204 49.0559 143.183 49.3759 143.14 49.5039C143.012 49.5039 142.458 49.7386 141.476 50.2079C140.495 50.6346 139.471 51.2106 138.404 51.9359C137.338 52.6186 136.783 53.2159 136.74 53.7279C136.57 54.8373 136.442 56.3519 136.356 58.2719H136.612C140.068 58.2719 141.796 58.3359 141.796 58.4639C141.796 60.4693 141.391 62.1333 140.58 63.4559C140.282 63.9679 140.026 64.2239 139.812 64.2239C138.447 64.1386 137.274 64.0959 136.292 64.0959V67.2959ZM154.264 86.8799L154.712 60.2559C154.712 58.0799 154.648 56.9493 154.52 56.8639C154.435 56.7359 154.093 56.6719 153.496 56.6719C152.173 56.6719 149.827 56.8853 146.456 57.3119L144.728 57.5679L144.536 55.9039C144.536 53.8559 144.877 52.0639 145.56 50.5279L145.944 49.7599C149.272 49.7173 153.027 49.5893 157.208 49.3759C161.432 49.1199 165.229 48.9919 168.6 48.9919C172.013 48.9919 173.72 49.0773 173.72 49.2479C173.72 50.4853 173.613 51.9786 173.4 53.7279C173.187 55.4346 172.931 56.4373 172.632 56.7359C171.651 56.5226 169.837 56.4159 167.192 56.4159C164.547 56.4159 163.16 56.4799 163.032 56.6079C162.733 56.9066 162.584 62.4746 162.584 73.3119C162.584 84.1493 163.224 90.7413 164.504 93.0879V93.1519C164.504 93.5359 163.672 93.8986 162.008 94.2399C160.344 94.5813 159.021 94.7519 158.04 94.7519C156.675 94.7519 155.565 94.5599 154.712 94.1759C154.413 93.8346 154.264 91.4026 154.264 86.8799ZM179.202 53.7919C180.397 53.7919 181.357 54.1759 182.082 54.9439C182.808 55.7119 183.17 56.7146 183.17 57.9519C183.17 59.1893 182.68 60.2559 181.698 61.1519C180.76 62.0053 179.693 62.4319 178.498 62.4319C177.346 62.4319 176.408 62.0693 175.682 61.3439C175 60.5759 174.658 59.5733 174.658 58.3359C174.658 57.0986 175.128 56.0319 176.066 55.1359C177.005 54.2399 178.05 53.7919 179.202 53.7919ZM182.466 69.7279L182.338 80.0959C182.338 83.4239 182.424 85.8773 182.594 87.4559C182.808 88.9919 183.362 90.4426 184.258 91.8079C184.258 92.2346 183.384 92.9173 181.634 93.8559C179.885 94.7946 178.392 95.2639 177.154 95.2639C176.77 95.2639 176.386 94.6239 176.002 93.3439C175.618 92.0639 175.362 90.8479 175.234 89.6959C175.149 88.5439 175.106 84.6613 175.106 78.0479C175.106 71.4346 175.256 67.8293 175.554 67.2319C176.536 66.4639 178.264 66.0799 180.738 66.0799C181.72 66.0799 182.317 66.2079 182.53 66.4639L182.466 69.7279ZM189.169 84.0639L188.977 69.0239C188.977 66.2933 189.084 64.8213 189.297 64.6079C189.809 64.1386 190.598 63.7119 191.665 63.3279C192.732 62.9013 193.756 62.6879 194.737 62.6879C195.718 62.6879 196.209 62.7733 196.209 62.9439C196.038 64.8213 195.953 66.2506 195.953 67.2319C195.953 68.2133 195.996 68.7039 196.081 68.7039C196.166 68.7039 196.294 68.6186 196.465 68.4479C196.636 68.2346 196.934 67.9359 197.361 67.5519C197.83 67.1253 198.662 66.5706 199.857 65.8879C201.094 65.1626 202.225 64.7999 203.249 64.7999C206.022 64.7999 208.113 66.0373 209.521 68.5119C211.953 65.0986 214.641 63.3919 217.585 63.3919C220.23 63.3919 222.129 64.5226 223.281 66.7839C224.476 69.3013 225.18 71.8186 225.393 74.3359C225.649 78.0053 225.777 81.8026 225.777 85.7279L225.521 93.2159C225.521 93.5146 224.817 93.7919 223.409 94.0479C222.001 94.3466 220.87 94.4959 220.017 94.4959L217.969 94.1759C218.438 89.9519 218.673 86.5386 218.673 83.9359C218.673 81.3333 218.63 79.4773 218.545 78.3679C218.502 77.2159 218.353 76.0853 218.097 74.9759C217.841 73.8239 217.436 73.0133 216.881 72.5439C216.369 72.0319 215.708 71.7759 214.897 71.7759C214.086 71.7759 213.361 72.0106 212.721 72.4799C212.081 72.9066 211.612 73.3333 211.313 73.7599C211.057 74.1866 210.929 74.4639 210.929 74.5919C211.057 75.9573 211.121 79.1146 211.121 84.0639L210.865 89.1199C210.865 89.4613 210.182 89.7599 208.817 90.0159C207.452 90.2719 206.342 90.3999 205.489 90.3999L203.441 90.0799C203.825 86.6239 204.017 83.4026 204.017 80.4159C204.017 77.3866 203.846 75.2746 203.505 74.0799C203.206 72.8426 202.374 72.2239 201.009 72.2239C199.644 72.2239 198.492 72.9066 197.553 74.2719C196.614 75.6373 196.145 76.6826 196.145 77.4079V78.7519L196.209 85.5359C196.209 89.7173 196.124 91.9146 195.953 92.1279C194.886 93.1519 192.646 93.6639 189.233 93.6639C188.892 93.6639 188.721 93.5999 188.721 93.4719C189.02 91.6373 189.169 88.5013 189.169 84.0639ZM246.317 71.6479C246.317 70.4106 245.656 69.7919 244.333 69.7919C242.584 69.7919 241.048 70.6879 239.725 72.4799C238.403 74.2719 237.741 76.4266 237.741 78.9439C237.741 79.5413 237.827 79.8399 237.997 79.8399C239.533 79.7973 241.304 78.9226 243.309 77.2159C245.315 75.4666 246.317 73.6106 246.317 71.6479ZM251.885 91.9999C250.435 92.9813 247.597 93.4719 243.373 93.4719C239.149 93.4719 235.907 92.2133 233.645 89.6959C231.384 87.1786 230.253 83.8293 230.253 79.6479C230.253 75.4239 231.597 71.7759 234.285 68.7039C237.016 65.5893 240.835 64.0319 245.741 64.0319C247.747 64.0319 249.581 64.5653 251.245 65.6319C252.952 66.6986 253.805 68.5759 253.805 71.2639C253.805 73.9093 252.632 76.5333 250.285 79.1359C247.981 81.7386 244.824 83.7226 240.813 85.0879C240.813 85.5999 241.325 86.0266 242.349 86.3679C243.416 86.6666 244.461 86.8159 245.485 86.8159C248.728 86.8159 251.288 86.2399 253.165 85.0879C253.208 85.0453 253.272 85.0239 253.357 85.0239C253.443 85.0239 253.485 85.4293 253.485 86.2399C253.485 88.7146 252.952 90.6346 251.885 91.9999ZM258.724 83.3599L258.596 68.8319C258.596 66.3146 258.681 64.9706 258.852 64.7999C259.321 64.3306 260.132 63.9253 261.284 63.5839C262.436 63.1999 263.503 63.0079 264.484 63.0079C265.508 63.0079 266.02 63.1146 266.02 63.3279C265.892 64.4799 265.828 65.8026 265.828 67.2959C265.828 68.7466 265.871 69.4719 265.956 69.4719C266.041 69.4719 266.127 69.4293 266.212 69.3439C266.297 69.2159 266.425 69.0453 266.596 68.8319C266.809 68.5759 267.215 68.1493 267.812 67.5519C268.452 66.9546 269.135 66.4426 269.86 66.0159C271.695 64.8213 273.657 64.2239 275.748 64.2239C276.089 64.7786 276.26 65.6319 276.26 66.7839C276.26 69.2159 275.961 70.9439 275.364 71.9679L275.108 72.4799L274.276 72.3519C271.204 72.3519 268.793 73.6106 267.044 76.1279C266.361 77.1519 266.02 77.9199 266.02 78.4319V84.0639C266.02 89.1839 265.956 91.8079 265.828 91.9359C264.633 93.0879 262.287 93.6639 258.788 93.6639C258.447 93.6639 258.276 93.5999 258.276 93.4719C258.575 91.8079 258.724 88.4373 258.724 83.3599Z" fill="#FE7F00"/>
<path d="M37.061 88.6079L40.0447 85.9439L40.0447 85.9439L37.061 88.6079ZM35.461 61.2799L39.0164 63.1126L39.0213 63.1032L39.0261 63.0938L35.461 61.2799ZM40.133 54.8799L37.3372 52.0192L37.3372 52.0192L40.133 54.8799ZM47.749 50.3359L46.3499 46.5886L46.3499 46.5886L47.749 50.3359ZM62.277 48.9279L61.3435 52.8175L61.3435 52.8175L62.277 48.9279ZM63.429 56.4799L59.4542 56.0312L59.451 56.0598L59.4482 56.0884L63.429 56.4799ZM62.981 60.4479L65.8094 63.2764L62.981 60.4479ZM60.293 61.4719L59.1531 57.6378L59.1386 57.6421L59.1241 57.6465L60.293 61.4719ZM56.837 62.1759H52.837V66.1759H56.837V62.1759ZM44.677 61.4079L47.7635 63.9522L47.7718 63.9421L47.7801 63.9319L44.677 61.4079ZM42.949 82.3999L39.5466 84.5032L39.5504 84.5094L42.949 82.3999ZM46.277 85.4079L44.4054 88.9431L44.4264 88.9542L44.4476 88.9651L46.277 85.4079ZM63.237 80.9919V76.9919H61.6067L60.4408 78.1316L63.237 80.9919ZM64.261 81.8239L61.3217 84.5371L61.4303 84.6546L61.5478 84.7632L64.261 81.8239ZM65.861 83.9359L62.388 85.9205L62.4271 85.989L62.469 86.0559L65.861 83.9359ZM65.477 89.2479L67.9256 92.4108L67.957 92.3865L67.988 92.3616L65.477 89.2479ZM51.205 89.9839C45.7561 89.9839 42.2757 88.4426 40.0447 85.9439L34.0772 91.272C38.2462 95.9413 44.1951 97.9839 51.205 97.9839V89.9839ZM40.0447 85.9439C37.6145 83.2221 36.261 79.6001 36.261 74.7199H28.261C28.261 81.1891 30.1074 86.8258 34.0772 91.272L40.0447 85.9439ZM36.261 74.7199C36.261 70.5128 37.1857 66.6641 39.0164 63.1126L31.9055 59.4472C29.4695 64.1731 28.261 69.2844 28.261 74.7199H36.261ZM39.0261 63.0938C40.0736 61.0348 41.3754 59.2587 42.9287 57.7407L37.3372 52.0192C35.1359 54.1705 33.323 56.661 31.8958 59.4661L39.0261 63.0938ZM42.9287 57.7407C44.3065 56.3941 46.3197 55.1392 49.148 54.0833L46.3499 46.5886C42.7782 47.922 39.714 49.6964 37.3372 52.0192L42.9287 57.7407ZM49.148 54.0833C51.8255 53.0837 54.9662 52.5439 58.629 52.5439V44.5439C54.185 44.5439 50.0724 45.1989 46.3499 46.5886L49.148 54.0833ZM58.629 52.5439C59.7529 52.5439 60.6462 52.6501 61.3435 52.8175L63.2104 45.0384C61.7744 44.6937 60.2357 44.5439 58.629 44.5439V52.5439ZM61.3435 52.8175C61.8531 52.9398 62.1366 53.0188 62.2578 53.0576C62.3413 53.0843 62.2319 53.0552 62.046 52.966C61.9737 52.9313 61.6843 52.7923 61.3532 52.5274C61.1854 52.3932 60.8772 52.125 60.5852 51.7045C60.2918 51.2821 59.877 50.5016 59.877 49.4399H67.877C67.877 47.4327 66.4637 46.3708 66.3507 46.2805C65.9863 45.9889 65.6469 45.8206 65.5079 45.7538C65.1887 45.6006 64.8793 45.4969 64.6961 45.4382C64.284 45.3064 63.7674 45.1721 63.2104 45.0384L61.3435 52.8175ZM59.877 49.4399C59.877 51.3014 59.7407 53.4934 59.4542 56.0312L67.4037 56.9287C67.7145 54.1759 67.877 51.6745 67.877 49.4399H59.877ZM59.4482 56.0884C59.3206 57.3851 59.2215 58.3433 59.1502 58.9752C59.1139 59.2963 59.0882 59.5035 59.0719 59.6189C59.0627 59.6845 59.0631 59.673 59.0731 59.6208C59.0764 59.6038 59.0959 59.4998 59.1347 59.3596C59.1526 59.2947 59.1968 59.1399 59.2741 58.9477C59.3133 58.8503 59.3823 58.6895 59.4877 58.5C59.5775 58.3387 59.7864 57.9856 60.1525 57.6195L65.8094 63.2764C66.4301 62.6556 66.6769 61.9812 66.6964 61.9327C66.7768 61.7328 66.8243 61.5678 66.8457 61.4903C66.8915 61.3247 66.9189 61.1854 66.9308 61.123C66.9581 60.9802 66.9792 60.838 66.994 60.733C67.0258 60.507 67.0613 60.2129 67.0997 59.8727C67.1777 59.1819 67.2813 58.1775 67.4097 56.8715L59.4482 56.0884ZM60.1525 57.6195C60.4059 57.3661 60.6297 57.2179 60.7154 57.1632C60.8186 57.0972 60.8896 57.0615 60.9041 57.0542C60.9299 57.0413 60.8839 57.0655 60.725 57.126C60.4133 57.2447 59.9039 57.4146 59.1531 57.6378L61.4328 65.3061C62.2607 65.06 62.9886 64.8245 63.5729 64.6019C63.862 64.4918 64.1786 64.3612 64.4818 64.2096C64.6879 64.1066 65.2751 63.8106 65.8094 63.2764L60.1525 57.6195ZM59.1241 57.6465C58.4373 57.8564 57.8939 57.9958 57.4785 58.0804C57.273 58.1223 57.1152 58.1474 56.9997 58.1615C56.8815 58.1759 56.8315 58.1759 56.837 58.1759V66.1759C58.2349 66.1759 59.8665 65.7848 61.4618 65.2973L59.1241 57.6465ZM60.837 62.1759V61.7919H52.837V62.1759H60.837ZM60.837 61.7919C60.837 59.7456 60.592 57.2793 59.2477 55.418L52.7622 60.1019C52.5952 59.8706 52.6398 59.8048 52.7115 60.1523C52.7784 60.4766 52.837 61.0049 52.837 61.7919H60.837ZM59.2477 55.418C57.6474 53.2022 55.1738 52.6079 53.125 52.6079V60.6079C53.4531 60.6079 53.5007 60.6568 53.3834 60.6098C53.3177 60.5836 53.2125 60.5317 53.0915 60.4397C52.9685 60.3462 52.8554 60.2309 52.7622 60.1019L59.2477 55.418ZM53.125 52.6079C48.4956 52.6079 44.6446 55.1084 41.5738 58.884L47.7801 63.9319C49.9146 61.3075 51.6956 60.6079 53.125 60.6079V52.6079ZM41.5904 58.8636C38.2169 62.9561 36.773 68.3186 36.773 74.4639H44.773C44.773 69.5159 45.9317 66.1744 47.7635 63.9522L41.5904 58.8636ZM36.773 74.4639C36.773 78.099 37.6788 81.4818 39.5466 84.5032L46.3513 80.2967C45.3178 78.6248 44.773 76.7169 44.773 74.4639H36.773ZM39.5504 84.5094C40.7378 86.4224 42.4097 87.8865 44.4054 88.9431L48.1485 81.8728C47.2429 81.3933 46.6961 80.8521 46.3475 80.2905L39.5504 84.5094ZM44.4476 88.9651C46.6067 90.0755 49.006 90.5599 51.525 90.5599V82.5599C50.0332 82.5599 48.9339 82.2764 48.1063 81.8508L44.4476 88.9651ZM51.525 90.5599C56.8847 90.5599 61.7383 88.0506 66.0331 83.8523L60.4408 78.1316C57.1409 81.3573 54.1865 82.5599 51.525 82.5599V90.5599ZM63.237 84.9919C62.7302 84.9919 62.3272 84.8918 62.0726 84.8091C61.8117 84.7243 61.6142 84.6274 61.4918 84.5611C61.2575 84.4342 61.1189 84.3209 61.0986 84.3044C61.0531 84.2674 61.1176 84.3159 61.3217 84.5371L67.2002 79.1108C66.8923 78.7773 66.5302 78.4098 66.1433 78.0955C65.9523 77.9403 65.6644 77.723 65.3021 77.5268C65.0138 77.3706 64.2606 76.9919 63.237 76.9919V84.9919ZM61.5478 84.7632C61.7144 84.9169 62.0099 85.2589 62.388 85.9205L69.3339 81.9514C68.688 80.821 67.9169 79.755 66.9741 78.8847L61.5478 84.7632ZM62.469 86.0559C62.9776 86.8697 63.308 87.4455 63.4979 87.8178C63.5944 88.007 63.6204 88.0773 63.6133 88.0583C63.609 88.0466 63.5799 87.9686 63.5488 87.8404C63.5222 87.7308 63.461 87.4528 63.461 87.0719H71.461C71.461 86.2292 71.2108 85.5355 71.1086 85.2616C70.9681 84.8852 70.7941 84.5155 70.624 84.1821C70.2806 83.509 69.811 82.7089 69.2529 81.8159L62.469 86.0559ZM63.461 87.0719C63.461 86.5557 63.5696 86.1515 63.6572 85.9029C63.7462 85.6501 63.8444 85.4709 63.9012 85.3757C64.0077 85.197 64.0763 85.1352 64.0091 85.2089C63.9556 85.2677 63.8476 85.3775 63.6638 85.5435C63.4836 85.7063 63.2533 85.9026 62.9659 86.1343L67.988 92.3616C68.7113 91.7783 69.3887 91.1825 69.9208 90.599C70.1843 90.31 70.5009 89.9283 70.7727 89.4722C71.0017 89.0881 71.461 88.2264 71.461 87.0719H63.461ZM63.0283 86.085C62.1417 86.7714 60.5389 87.6527 57.9856 88.666L60.9363 96.1019C63.759 94.9818 66.1669 93.7725 67.9256 92.4108L63.0283 86.085ZM57.9856 88.666C55.7542 89.5514 53.502 89.9839 51.205 89.9839V97.9839C54.5399 97.9839 57.7917 97.3498 60.9363 96.1019L57.9856 88.666ZM71.468 79.5839H75.468V79.5666L75.4678 79.5494L71.468 79.5839ZM71.276 57.3759H67.276V57.3932L67.2761 57.4105L71.276 57.3759ZM71.596 50.8479L74.4244 53.6764L74.4244 53.6764L71.596 50.8479ZM74.092 49.3759L75.6011 53.0803L75.6011 53.0803L74.092 49.3759ZM79.02 48.9279L82.9955 49.3697L83.02 49.1495V48.9279H79.02ZM78.764 57.3119L74.7652 57.2136L74.7652 57.2136L78.764 57.3119ZM78.764 68.4479V72.4479H80.4208L81.5924 71.2764L78.764 68.4479ZM80.044 67.1679L77.3533 64.2082L77.2828 64.2722L77.2155 64.3395L80.044 67.1679ZM82.86 65.4399L84.6918 68.9958L84.7117 68.9856L84.7315 68.9751L82.86 65.4399ZM90.028 64.9279L88.165 68.4676L88.2018 68.487L88.2391 68.5056L90.028 64.9279ZM92.14 66.4639L95.0711 63.7421L95.0711 63.7421L92.14 66.4639ZM93.548 69.0879L89.7532 70.3528L89.7605 70.3747L89.768 70.3964L93.548 69.0879ZM94.38 72.2239L90.4391 72.9093L90.4567 73.0104L90.4794 73.1104L94.38 72.2239ZM94.892 76.1279L98.8856 75.9019L98.8833 75.8615L98.8802 75.8212L94.892 76.1279ZM95.084 84.7039L99.0821 84.8242L99.084 84.7641V84.7039H95.084ZM94.828 93.2159L98.5733 94.6204L98.8062 93.9993L98.8261 93.3362L94.828 93.2159ZM92.652 94.1119L91.8919 90.1848L91.8919 90.1848L92.652 94.1119ZM89.388 94.4959L88.7887 98.4508L89.0866 98.4959H89.388V94.4959ZM87.276 94.1759L83.3004 93.7342L82.8759 97.5549L86.6767 98.1308L87.276 94.1759ZM87.148 75.0399L83.2952 76.1151L83.2952 76.1151L87.148 75.0399ZM81.132 73.5039L83.8156 76.4701L83.8156 76.4701L81.132 73.5039ZM79.276 75.9359L82.8909 77.6483L82.9285 77.569L82.9625 77.4882L79.276 75.9359ZM78.7 77.1519L75.085 75.4396L74.6738 76.3077L74.7016 77.2678L78.7 77.1519ZM78.508 91.9359L76.0092 88.8125L75.9184 88.885L75.8321 88.9628L78.508 91.9359ZM70.956 93.4719L67.0205 92.7564L66.956 93.1113V93.4719H70.956ZM75.4678 79.5494L75.2758 57.3414L67.2761 57.4105L67.4681 79.6185L75.4678 79.5494ZM75.276 57.3759C75.276 55.3251 75.3027 53.8243 75.3512 52.8358C75.3759 52.33 75.4028 52.0395 75.4206 51.9069C75.4306 51.8316 75.4258 51.9001 75.3873 52.0451C75.3682 52.1173 75.3197 52.2897 75.2238 52.5097C75.1505 52.6778 74.9224 53.1783 74.4244 53.6764L68.7675 48.0195C68.2428 48.5442 67.9889 49.0867 67.8906 49.3121C67.7697 49.5895 67.697 49.8346 67.6546 49.9948C67.5694 50.3158 67.5213 50.6216 67.4913 50.845C67.4291 51.3097 67.3893 51.8618 67.3607 52.4441C67.3025 53.6315 67.276 55.2881 67.276 57.3759H75.276ZM74.4244 53.6764C74.3778 53.7229 74.4202 53.6686 74.6359 53.5414C74.8445 53.4184 75.157 53.2612 75.6011 53.0803L72.5828 45.6716C71.2409 46.2183 69.8344 46.9526 68.7675 48.0195L74.4244 53.6764ZM75.6011 53.0803C76.3525 52.7742 76.9493 52.6719 77.42 52.6719V44.6719C75.7573 44.6719 74.1354 45.039 72.5828 45.6716L75.6011 53.0803ZM77.42 52.6719C77.9038 52.6719 78.0454 52.6949 77.988 52.6857C77.9583 52.681 77.8782 52.6672 77.7643 52.6369C77.6608 52.6093 77.4496 52.5471 77.189 52.422C76.9536 52.309 76.4719 52.048 76.0112 51.532C75.4934 50.952 75.02 50.0557 75.02 48.9279H83.02C83.02 46.4378 81.033 45.3933 80.6509 45.2098C80.0602 44.9263 79.5072 44.827 79.2519 44.7862C78.6612 44.6917 78.0028 44.6719 77.42 44.6719V52.6719ZM75.0444 48.4862C74.9766 49.0963 74.889 52.1767 74.7652 57.2136L82.7627 57.4103C82.8267 54.81 82.8798 52.8194 82.9221 51.434C82.9683 49.9204 82.9971 49.3554 82.9955 49.3697L75.0444 48.4862ZM74.7652 57.2136C74.6374 62.4083 74.572 65.8724 74.572 67.5519H82.572C82.572 65.9888 82.6345 62.6263 82.7627 57.4103L74.7652 57.2136ZM74.572 67.5519V68.1279H82.572V67.5519H74.572ZM74.572 68.1279C74.572 68.504 74.6051 69.4511 75.19 70.4259C75.9702 71.7263 77.3448 72.4479 78.764 72.4479V64.4479C79.2984 64.4479 79.9606 64.5635 80.6225 64.9313C81.2898 65.302 81.7537 65.8162 82.0499 66.31C82.5708 67.1781 82.572 67.9652 82.572 68.1279H74.572ZM81.5924 71.2764L82.8724 69.9964L77.2155 64.3395L75.9355 65.6195L81.5924 71.2764ZM82.7346 70.1277C82.6975 70.1614 82.8049 70.0628 83.192 69.8252C83.5487 69.6064 84.0416 69.3308 84.6918 68.9958L81.0281 61.884C79.636 62.6012 78.2579 63.3858 77.3533 64.2082L82.7346 70.1277ZM84.7315 68.9751C85.7867 68.4165 86.4851 68.2879 86.892 68.2879V60.2879C84.8242 60.2879 82.8346 60.9274 80.9884 61.9048L84.7315 68.9751ZM86.892 68.2879C87.7662 68.2879 88.1112 68.4393 88.165 68.4676L91.8909 61.3883C90.3234 60.5633 88.5777 60.2879 86.892 60.2879V68.2879ZM88.2391 68.5056C88.7351 68.7537 89.0309 68.9942 89.2088 69.1857L95.0711 63.7421C94.1396 62.739 93.0274 61.9555 91.8168 61.3502L88.2391 68.5056ZM89.2088 69.1857C89.208 69.1849 89.2249 69.2031 89.2563 69.2482C89.2878 69.2934 89.3311 69.3619 89.3833 69.4592C89.4896 69.6573 89.618 69.9471 89.7532 70.3528L97.3427 67.823C96.8588 66.3713 96.1569 64.9114 95.0711 63.7421L89.2088 69.1857ZM89.768 70.3964C90.0938 71.3375 90.3111 72.1731 90.4391 72.9093L98.3208 71.5386C98.1075 70.3121 97.7701 69.057 97.3279 67.7795L89.768 70.3964ZM90.4794 73.1104C90.6291 73.7692 90.7816 74.8466 90.9037 76.4347L98.8802 75.8212C98.7463 74.0813 98.5574 72.556 98.2805 71.3375L90.4794 73.1104ZM90.8983 76.354C91.0205 78.512 91.084 81.2887 91.084 84.7039H99.084C99.084 81.2072 99.0194 78.2666 98.8856 75.9019L90.8983 76.354ZM91.0858 84.5837L90.8298 93.0957L98.8261 93.3362L99.0821 84.8242L91.0858 84.5837ZM91.0826 91.8114C91.4155 90.9237 91.9827 90.4418 92.22 90.2639C92.3585 90.16 92.4723 90.094 92.5394 90.058C92.6084 90.0209 92.6535 90.0019 92.665 89.9972C92.6824 89.99 92.6324 90.0115 92.4863 90.051C92.3458 90.0891 92.1508 90.1347 91.8919 90.1848L93.412 98.0391C94.1774 97.8909 94.9886 97.6921 95.711 97.3947C96.0726 97.2457 96.5489 97.0172 97.02 96.6639C97.4705 96.326 98.1764 95.6789 98.5733 94.6204L91.0826 91.8114ZM91.8919 90.1848C90.6938 90.4167 89.8838 90.4959 89.388 90.4959V98.4959C90.5987 98.4959 91.9648 98.3192 93.412 98.0391L91.8919 90.1848ZM89.9872 90.5411L87.8752 90.2211L86.6767 98.1308L88.7887 98.4508L89.9872 90.5411ZM91.2515 94.6177C91.693 90.6441 91.916 86.8054 91.916 83.1039H83.916C83.916 86.4851 83.7122 90.0278 83.3004 93.7342L91.2515 94.6177ZM91.916 83.1039C91.916 79.4537 91.661 76.3306 91.0007 73.9647L83.2952 76.1151C83.6589 77.4186 83.916 79.6715 83.916 83.1039H91.916ZM91.0007 73.9647C90.6107 72.5672 89.9034 71.0972 88.6183 69.9694C87.2671 68.7837 85.6321 68.2879 84.012 68.2879V76.2879C84.0174 76.2879 83.9256 76.2882 83.7759 76.2358C83.6188 76.1809 83.466 76.0916 83.3416 75.9824C83.1018 75.772 83.1732 75.678 83.2952 76.1151L91.0007 73.9647ZM84.012 68.2879C81.822 68.2879 79.9394 69.1887 78.4483 70.5378L83.8156 76.4701C83.9828 76.3188 84.0736 76.2796 84.0798 76.2769C84.0836 76.2754 84.0749 76.2792 84.0566 76.283C84.0381 76.2868 84.0218 76.2879 84.012 76.2879V68.2879ZM78.4483 70.5378C77.2713 71.6027 76.2259 72.8721 75.5894 74.3837L82.9625 77.4882C83.0087 77.3784 83.2006 77.0265 83.8156 76.4701L78.4483 70.5378ZM75.661 74.2236L75.085 75.4396L82.3149 78.8643L82.8909 77.6483L75.661 74.2236ZM74.7016 77.2678C74.7857 80.1682 74.828 83.2865 74.828 86.6239H82.828C82.828 83.22 82.7849 80.0237 82.6983 77.036L74.7016 77.2678ZM74.828 86.6239C74.828 88.2866 74.8012 89.4762 74.7552 90.2394C74.744 90.4249 74.7325 90.5707 74.7217 90.6817C74.7164 90.7365 74.7116 90.7788 74.7077 90.8099C74.7058 90.8253 74.7042 90.8369 74.703 90.8452C74.7019 90.8535 74.7012 90.8574 74.7012 90.8574C74.7012 90.8573 74.7014 90.856 74.7019 90.8535C74.7023 90.8511 74.703 90.8473 74.704 90.8422C74.7059 90.8324 74.7092 90.8158 74.7142 90.7935C74.723 90.7542 74.7435 90.6686 74.7812 90.5534C74.8152 90.4495 74.8893 90.2399 75.0264 89.9858C75.145 89.766 75.4389 89.2687 76.0092 88.8125L81.0067 95.0594C82.034 94.2376 82.3474 93.1547 82.3847 93.0405C82.4985 92.6927 82.5596 92.3714 82.5947 92.1585C82.6681 91.7132 82.7112 91.2103 82.7407 90.7205C82.8014 89.713 82.828 88.3319 82.828 86.6239H74.828ZM75.8321 88.9628C75.8399 88.9557 75.6109 89.1567 74.8344 89.3472C74.0718 89.5344 72.9739 89.6639 71.468 89.6639V97.6639C75.0357 97.6639 78.7243 97.1227 81.1838 94.9091L75.8321 88.9628ZM71.468 89.6639C71.499 89.6639 71.5968 89.6649 71.7401 89.6828C71.8694 89.699 72.1451 89.7419 72.4884 89.8706C72.8152 89.9932 73.424 90.2757 73.9776 90.8985C74.6046 91.6039 74.956 92.5205 74.956 93.4719H66.956C66.956 94.4873 67.3286 95.46 67.9983 96.2134C68.5946 96.8842 69.2674 97.2067 69.6795 97.3613C70.4507 97.6505 71.161 97.6639 71.468 97.6639V89.6639ZM74.8914 94.1875C75.3115 91.8768 75.468 86.8375 75.468 79.5839H67.468C67.468 87.093 67.283 91.3124 67.0205 92.7564L74.8914 94.1875ZM107.31 79.8399V83.8399H107.365L107.421 83.8384L107.31 79.8399ZM112.622 77.2159L115.214 80.2621L115.233 80.2463L115.251 80.2302L112.622 77.2159ZM121.198 91.9999L123.439 95.3131L123.962 94.9596L124.35 94.4625L121.198 91.9999ZM103.598 68.7039L100.59 66.067L100.588 66.0699L103.598 68.7039ZM120.558 65.6319L118.399 68.9995L118.419 69.0118L118.438 69.0239L120.558 65.6319ZM119.598 79.1359L116.627 76.4574L116.615 76.4709L116.603 76.4846L119.598 79.1359ZM110.126 85.0879L108.837 81.3013L106.126 82.2242V85.0879H110.126ZM111.662 86.3679L110.397 90.1627L110.49 90.1935L110.583 90.2198L111.662 86.3679ZM122.478 85.0879L124.57 88.4972L124.972 88.2503L125.306 87.9164L122.478 85.0879ZM119.63 71.6479C119.63 70.3419 119.268 68.6461 117.867 67.3349C116.515 66.0706 114.86 65.7919 113.646 65.7919V73.7919C113.755 73.7919 113.091 73.8226 112.401 73.177C111.661 72.4844 111.63 71.7167 111.63 71.6479H119.63ZM113.646 65.7919C110.287 65.7919 107.669 67.5994 105.82 70.1045L112.256 74.8553C113.053 73.7764 113.507 73.7919 113.646 73.7919V65.7919ZM105.82 70.1045C103.924 72.6725 103.054 75.688 103.054 78.9439H111.054C111.054 77.1652 111.506 75.8713 112.256 74.8553L105.82 70.1045ZM103.054 78.9439C103.054 79.3388 103.072 80.0154 103.272 80.7148C103.37 81.0571 103.599 81.732 104.161 82.3871C104.824 83.1608 105.915 83.8399 107.31 83.8399V75.8399C108.619 75.8399 109.636 76.4818 110.235 77.1808C110.732 77.7612 110.909 78.3241 110.964 78.5171C111.079 78.9178 111.054 79.1464 111.054 78.9439H103.054ZM107.421 83.8384C110.322 83.7578 112.964 82.1773 115.214 80.2621L110.029 74.1698C108.269 75.6679 107.37 75.8367 107.199 75.8415L107.421 83.8384ZM115.251 80.2302C117.802 78.0051 119.63 75.1373 119.63 71.6479H111.63C111.63 72.0839 111.452 72.9282 109.992 74.2017L115.251 80.2302ZM118.957 88.6868C118.957 88.6865 118.846 88.7595 118.551 88.8607C118.262 88.9601 117.853 89.0668 117.3 89.1624C116.184 89.3554 114.665 89.4719 112.686 89.4719V97.4719C114.931 97.4719 116.942 97.3431 118.664 97.0454C120.325 96.758 122.037 96.2617 123.439 95.3131L118.957 88.6868ZM112.686 89.4719C109.294 89.4719 107.255 88.4938 105.934 87.0229L99.9823 92.369C103.184 95.9328 107.63 97.4719 112.686 97.4719V89.4719ZM105.934 87.0229C104.478 85.4021 103.566 83.0851 103.566 79.6479H95.566C95.566 84.5735 96.9155 88.9551 99.9823 92.369L105.934 87.0229ZM103.566 79.6479C103.566 76.3559 104.582 73.6535 106.608 71.338L100.588 66.0699C97.2377 69.8984 95.566 74.492 95.566 79.6479H103.566ZM106.606 71.3409C108.435 69.2539 111.066 68.0319 115.054 68.0319V60.0319C109.229 60.0319 104.222 61.9247 100.59 66.067L106.606 71.3409ZM115.054 68.0319C116.306 68.0319 117.389 68.3521 118.399 68.9995L122.717 62.2644C120.398 60.7784 117.813 60.0319 115.054 60.0319V68.0319ZM118.438 69.0239C118.594 69.1215 119.118 69.4363 119.118 71.2639H127.118C127.118 67.7156 125.935 64.2757 122.678 62.2399L118.438 69.0239ZM119.118 71.2639C119.118 72.635 118.531 74.3462 116.627 76.4574L122.569 81.8145C125.359 78.7203 127.118 75.1836 127.118 71.2639H119.118ZM116.603 76.4846C114.85 78.4645 112.333 80.1111 108.837 81.3013L111.415 88.8745C115.94 87.3341 119.738 85.0127 122.593 81.7873L116.603 76.4846ZM106.126 85.0879C106.126 86.8683 107.077 88.1377 107.949 88.8648C108.752 89.5341 109.669 89.9198 110.397 90.1627L112.927 82.5732C112.631 82.4747 112.78 82.4765 113.071 82.7191C113.238 82.8582 113.505 83.1214 113.734 83.5405C113.975 83.9838 114.126 84.5167 114.126 85.0879H106.126ZM110.583 90.2198C111.973 90.6088 113.381 90.8159 114.798 90.8159V82.8159C114.167 82.8159 113.485 82.7244 112.74 82.5161L110.583 90.2198ZM114.798 90.8159C118.452 90.8159 121.833 90.1767 124.57 88.4972L120.386 81.6786C119.368 82.3032 117.629 82.8159 114.798 82.8159V90.8159ZM125.306 87.9164C124.334 88.8884 123.201 89.0239 122.67 89.0239V81.0239C121.968 81.0239 120.707 81.2021 119.65 82.2595L125.306 87.9164ZM122.67 89.0239C120.888 89.0239 119.849 87.9174 119.48 87.4157C119.109 86.913 118.958 86.4515 118.912 86.3044C118.849 86.1051 118.82 85.9516 118.808 85.8861C118.795 85.8105 118.789 85.7603 118.788 85.7467C118.787 85.7333 118.798 85.8664 118.798 86.2399H126.798C126.798 85.8028 126.788 85.3279 126.744 84.9092C126.726 84.7367 126.68 84.3384 126.54 83.8954C126.478 83.6978 126.309 83.1982 125.92 82.6702C125.532 82.1432 124.473 81.0239 122.67 81.0239V89.0239ZM118.798 86.2399C118.798 88.1942 118.371 89.121 118.046 89.5374L124.35 94.4625C126.158 92.1482 126.798 89.235 126.798 86.2399H118.798ZM136.292 67.2959H132.292V67.3209L132.293 67.3459L136.292 67.2959ZM136.612 92.8959H140.612V92.8709L140.612 92.8459L136.612 92.8959ZM136.484 96.0319L138.857 99.2522L140.103 98.3341L140.407 96.8164L136.484 96.0319ZM130.02 97.8239L129.317 101.762L129.666 101.824H130.02V97.8239ZM128.228 97.5039L124.264 96.9683L123.751 100.768L127.525 101.442L128.228 97.5039ZM129.124 64.2239L133.123 64.1097L133.007 60.0433L128.943 60.2281L129.124 64.2239ZM126.308 64.3519L123.48 67.1804L124.728 68.4279L126.49 68.3478L126.308 64.3519ZM126.564 58.4639L126.343 54.4701L124.817 54.5549L123.736 55.6355L126.564 58.4639ZM129.06 58.3359L129.251 62.3314L133.124 62.147L133.06 58.2698L129.06 58.3359ZM128.932 50.5919L132.932 50.5258L132.928 50.31L132.902 50.0958L128.932 50.5919ZM133.668 47.1999L131.918 43.6035L131.918 43.6035L133.668 47.1999ZM142.564 46.3039L138.839 47.7615L138.879 47.8615L138.923 47.9591L142.564 46.3039ZM143.14 49.5039V53.5039H146.024L146.935 50.7688L143.14 49.5039ZM141.476 50.2079L143.071 53.8762L143.137 53.8475L143.202 53.8165L141.476 50.2079ZM138.404 51.9359L140.561 55.305L140.608 55.275L140.654 55.2436L138.404 51.9359ZM136.74 53.7279L140.694 54.3362L140.715 54.1987L140.727 54.0601L136.74 53.7279ZM136.356 58.2719L132.36 58.0943L132.175 62.2719H136.356V58.2719ZM140.58 63.4559L137.17 61.3657L137.147 61.4028L137.125 61.4405L140.58 63.4559ZM139.812 64.2239L139.563 68.2161L139.688 68.2239H139.812V64.2239ZM136.292 64.0959V60.0959H132.292V64.0959H136.292ZM132.293 67.3459L132.613 92.9459L140.612 92.8459L140.292 67.2459L132.293 67.3459ZM132.612 92.8959C132.612 93.7012 132.602 94.3185 132.584 94.7648C132.575 94.9878 132.565 95.1457 132.555 95.2494C132.545 95.3725 132.541 95.3509 132.562 95.2475L140.407 96.8164C140.587 95.9163 140.612 94.4225 140.612 92.8959H132.612ZM134.112 92.8117C133.375 93.3544 132.138 93.8239 130.02 93.8239V101.824C133.279 101.824 136.351 101.099 138.857 99.2522L134.112 92.8117ZM130.724 93.8862L128.932 93.5662L127.525 101.442L129.317 101.762L130.724 93.8862ZM132.192 98.0396C132.873 93.0009 133.188 83.9998 133.188 71.2639H125.188C125.188 84.0428 124.864 92.535 124.264 96.9683L132.192 98.0396ZM133.188 71.2639C133.188 68.0586 133.167 65.6638 133.123 64.1097L125.126 64.3382C125.167 65.7708 125.188 68.0693 125.188 71.2639H133.188ZM128.943 60.2281L126.127 60.3561L126.49 68.3478L129.306 68.2198L128.943 60.2281ZM129.137 61.5235C129.35 61.7367 129.504 61.9418 129.611 62.105C129.719 62.2693 129.796 62.4156 129.849 62.5277C129.952 62.744 130.002 62.9119 130.023 62.9854C130.061 63.1255 130.058 63.1669 130.043 63.0363C130.03 62.9253 130.016 62.7464 130.005 62.4841C129.995 62.2259 129.988 61.9115 129.988 61.5359H121.988C121.988 62.4239 122.016 63.2488 122.094 63.9396C122.133 64.2783 122.195 64.6984 122.314 65.1265C122.391 65.4014 122.658 66.3582 123.48 67.1804L129.137 61.5235ZM129.988 61.5359C129.988 61.194 129.998 60.9152 130.014 60.6929C130.03 60.4672 130.051 60.3277 130.064 60.2571C130.079 60.1771 130.075 60.2391 130.015 60.3865C129.982 60.4652 129.926 60.5895 129.833 60.7399C129.74 60.8903 129.599 61.0867 129.393 61.2924L123.736 55.6355C122.652 56.72 122.33 58.0936 122.201 58.7828C122.041 59.6374 121.988 60.5842 121.988 61.5359H129.988ZM126.786 62.4578C127.542 62.4158 128.364 62.3737 129.251 62.3314L128.87 54.3405C127.965 54.3836 127.123 54.4268 126.343 54.4701L126.786 62.4578ZM133.06 58.2698L132.932 50.5258L124.933 50.658L125.061 58.402L133.06 58.2698ZM132.902 50.0958C132.996 50.8535 132.831 51.468 132.671 51.8516C132.518 52.2207 132.341 52.4509 132.268 52.5388C132.137 52.6977 132.111 52.6775 132.382 52.4839C132.895 52.1165 133.86 51.5556 135.419 50.7964L131.918 43.6035C130.234 44.423 128.789 45.2167 127.723 45.98C127.204 46.3517 126.597 46.8408 126.093 47.4531C125.673 47.9622 124.736 49.266 124.963 51.0881L132.902 50.0958ZM135.419 50.7964C138.471 49.3105 140.462 48.8319 141.604 48.8319V40.8319C138.651 40.8319 135.351 41.9321 131.918 43.6035L135.419 50.7964ZM141.604 48.8319C140.354 48.8319 139.53 48.2379 139.215 47.9689C138.881 47.6844 138.714 47.4282 138.686 47.385C138.623 47.2883 138.682 47.3582 138.839 47.7615L146.289 44.8463C146.063 44.2684 145.77 43.6022 145.387 43.0149C145.199 42.7263 144.88 42.2862 144.402 41.879C143.943 41.4873 142.983 40.8319 141.604 40.8319V48.8319ZM138.923 47.9591C139.079 48.3029 139.16 48.5337 139.198 48.6668C139.216 48.7303 139.219 48.7527 139.217 48.739C139.215 48.7265 139.204 48.658 139.204 48.5439H147.204C147.204 47.1171 146.7 45.7362 146.206 44.6487L138.923 47.9591ZM139.204 48.5439C139.204 48.6452 139.203 48.7263 139.202 48.7894C139.2 48.8539 139.198 48.8895 139.197 48.9019C139.196 48.9193 139.198 48.8811 139.209 48.8063C139.214 48.767 139.225 48.7014 139.243 48.6169C139.259 48.537 139.291 48.4036 139.346 48.239L146.935 50.7688C147.135 50.1694 147.169 49.5966 147.18 49.434C147.199 49.1494 147.204 48.8432 147.204 48.5439H139.204ZM143.14 45.5039C142.339 45.5039 141.666 45.7647 141.664 45.7652C141.453 45.8376 141.246 45.9217 141.07 45.9961C140.709 46.149 140.26 46.3557 139.751 46.5994L143.202 53.8165C143.433 53.706 143.632 53.613 143.799 53.5362C143.968 53.4586 144.096 53.4024 144.187 53.3638C144.232 53.3448 144.262 53.3327 144.279 53.3259C144.298 53.3186 144.291 53.3216 144.265 53.3307C144.251 53.3355 144.226 53.3438 144.192 53.3541C144.16 53.3641 144.108 53.3791 144.043 53.3955C143.98 53.4112 143.879 53.4346 143.75 53.4554C143.684 53.466 143.601 53.4776 143.505 53.4868C143.41 53.4958 143.286 53.5039 143.14 53.5039V45.5039ZM139.882 46.5397C138.63 47.0836 137.388 47.7901 136.155 48.6282L140.654 55.2436C141.554 54.6311 142.36 54.1856 143.071 53.8762L139.882 46.5397ZM136.248 48.5669C135.569 49.0018 134.854 49.531 134.257 50.1741C133.705 50.7693 132.882 51.8581 132.754 53.3958L140.727 54.0601C140.683 54.5889 140.519 54.9857 140.39 55.2243C140.265 55.4574 140.148 55.5868 140.12 55.6177C140.077 55.6636 140.174 55.5528 140.561 55.305L136.248 48.5669ZM132.787 53.1197C132.584 54.4369 132.448 56.116 132.36 58.0943L140.353 58.4495C140.435 56.5879 140.555 55.2376 140.694 54.3362L132.787 53.1197ZM136.356 62.2719H136.612V54.2719H136.356V62.2719ZM136.612 62.2719C138.329 62.2719 139.565 62.288 140.352 62.3172C140.762 62.3324 140.966 62.3483 141.031 62.3555C141.091 62.3622 140.942 62.3507 140.712 62.2909C140.629 62.2694 140.263 62.1759 139.834 61.9373C139.618 61.8176 139.189 61.5546 138.775 61.0793C138.329 60.5675 137.796 59.6746 137.796 58.4639H145.796C145.796 56.0457 143.852 55.0183 143.719 54.944C143.262 54.6905 142.856 54.5824 142.719 54.5469C142.381 54.4591 142.07 54.4217 141.914 54.4044C141.547 54.3636 141.103 54.3395 140.648 54.3227C139.708 54.2878 138.351 54.2719 136.612 54.2719V62.2719ZM137.796 58.4639C137.796 59.9436 137.498 60.8312 137.17 61.3657L143.991 65.5462C145.285 63.4353 145.796 60.9949 145.796 58.4639H137.796ZM137.125 61.4405C137.054 61.5624 137.117 61.4229 137.336 61.2035C137.453 61.0861 137.694 60.867 138.065 60.6644C138.448 60.4555 139.048 60.2239 139.812 60.2239V68.2239C141.515 68.2239 142.605 67.248 142.993 66.8604C143.468 66.385 143.808 65.8615 144.036 65.4714L137.125 61.4405ZM140.062 60.2317C138.643 60.1431 137.382 60.0959 136.292 60.0959V68.0959C137.165 68.0959 138.251 68.1342 139.563 68.2161L140.062 60.2317ZM132.292 64.0959V67.2959H140.292V64.0959H132.292ZM154.264 86.8799L150.265 86.8126L150.264 86.8463V86.8799H154.264ZM154.712 60.2559L158.711 60.3232L158.712 60.2896V60.2559H154.712ZM154.52 56.8639L151.192 59.0827L151.636 59.7484L152.301 60.1922L154.52 56.8639ZM146.456 57.3119L145.954 53.3436L145.912 53.3489L145.87 53.3551L146.456 57.3119ZM144.728 57.5679L140.754 58.0264L141.228 62.1301L145.314 61.5247L144.728 57.5679ZM144.536 55.9039H140.536V56.1339L140.562 56.3624L144.536 55.9039ZM145.56 50.5279L141.982 48.7391L141.942 48.8204L141.905 48.9034L145.56 50.5279ZM145.944 49.7599L145.893 45.7603L143.456 45.7915L142.366 47.9711L145.944 49.7599ZM157.208 49.3759L157.412 53.3707L157.431 53.3698L157.45 53.3686L157.208 49.3759ZM173.4 53.7279L177.369 54.2241L177.371 54.2122L173.4 53.7279ZM172.632 56.7359L171.782 60.6446L173.916 61.1086L175.46 59.5644L172.632 56.7359ZM163.032 56.6079L165.86 59.4364L165.86 59.4363L163.032 56.6079ZM164.504 93.0879H168.504V92.068L168.016 91.1725L164.504 93.0879ZM162.008 94.2399L161.204 90.3215L161.204 90.3215L162.008 94.2399ZM154.712 94.1759L151.702 96.81L152.276 97.4659L153.07 97.8236L154.712 94.1759ZM158.263 86.9472L158.711 60.3232L150.713 60.1886L150.265 86.8126L158.263 86.9472ZM158.712 60.2559C158.712 59.1476 158.696 58.2305 158.658 57.5499C158.639 57.2246 158.61 56.8504 158.555 56.5001C158.529 56.338 158.478 56.0453 158.371 55.7152C158.318 55.551 158.217 55.2694 158.04 54.9496C157.89 54.6805 157.504 54.046 156.739 53.5357L152.301 60.1922C151.904 59.9275 151.625 59.6383 151.443 59.4169C151.259 59.193 151.131 58.9867 151.047 58.8348C150.884 58.542 150.798 58.2956 150.759 58.1747C150.68 57.9313 150.654 57.7578 150.653 57.7478C150.646 57.7014 150.657 57.7619 150.67 58.002C150.696 58.452 150.712 59.1882 150.712 60.2559H158.712ZM157.848 54.6451C157.246 53.7424 156.457 53.3157 156.049 53.1323C155.604 52.9319 155.199 52.8376 154.937 52.7884C154.411 52.6898 153.893 52.6719 153.496 52.6719V60.6719C153.696 60.6719 153.648 60.6861 153.463 60.6514C153.371 60.6343 153.105 60.58 152.766 60.4276C152.465 60.2922 151.751 59.9215 151.192 59.0827L157.848 54.6451ZM153.496 52.6719C151.89 52.6719 149.312 52.9185 145.954 53.3436L146.958 61.2803C150.341 60.852 152.457 60.6719 153.496 60.6719V52.6719ZM145.87 53.3551L144.142 53.6111L145.314 61.5247L147.042 61.2687L145.87 53.3551ZM148.702 57.1094L148.51 55.4454L140.562 56.3624L140.754 58.0264L148.702 57.1094ZM148.536 55.9039C148.536 54.2961 148.804 53.0781 149.215 52.1525L141.905 48.9034C140.951 51.0498 140.536 53.4158 140.536 55.9039H148.536ZM149.138 52.3168L149.522 51.5488L142.366 47.9711L141.982 48.7391L149.138 52.3168ZM145.995 53.7596C149.385 53.7161 153.192 53.586 157.412 53.3707L157.004 45.3811C152.861 45.5925 149.159 45.7184 145.893 45.7603L145.995 53.7596ZM157.45 53.3686C161.613 53.1163 165.327 52.9919 168.6 52.9919V44.9919C165.131 44.9919 161.251 45.1235 156.966 45.3833L157.45 53.3686ZM168.6 52.9919C170.292 52.9919 171.49 53.0135 172.24 53.0509C172.423 53.0601 172.563 53.0694 172.668 53.0781C172.778 53.0873 172.817 53.0933 172.807 53.0917C172.8 53.0907 172.758 53.0844 172.693 53.0702C172.637 53.058 172.499 53.0265 172.319 52.9634C172.187 52.9175 171.764 52.7653 171.3 52.4169C170.883 52.1046 169.72 51.0757 169.72 49.2479H177.72C177.72 47.3989 176.543 46.3493 176.1 46.0169C175.609 45.6486 175.146 45.477 174.961 45.4125C174.546 45.2671 174.168 45.2063 173.993 45.1802C173.578 45.1178 173.097 45.0838 172.64 45.0609C171.683 45.0131 170.321 44.9919 168.6 44.9919V52.9919ZM169.72 49.2479C169.72 50.2716 169.631 51.5937 169.429 53.2437L177.371 54.2122C177.596 52.3635 177.72 50.699 177.72 49.2479H169.72ZM169.431 53.2318C169.383 53.6108 169.336 53.9296 169.291 54.1932C169.244 54.46 169.204 54.6477 169.172 54.7704C169.138 54.9051 169.13 54.9008 169.168 54.8115C169.189 54.7629 169.237 54.6561 169.322 54.516C169.404 54.3818 169.556 54.1548 169.804 53.9075L175.46 59.5644C176.061 58.9642 176.375 58.3071 176.528 57.9483C176.704 57.5338 176.83 57.1161 176.924 56.7495C177.111 56.0149 177.253 55.1504 177.369 54.2241L169.431 53.2318ZM173.482 52.8272C172.025 52.5106 169.806 52.4159 167.192 52.4159V60.4159C169.869 60.4159 171.276 60.5346 171.782 60.6446L173.482 52.8272ZM167.192 52.4159C165.852 52.4159 164.771 52.4319 163.984 52.4682C163.601 52.4858 163.209 52.5116 162.861 52.5557C162.697 52.5765 162.44 52.6138 162.158 52.6851C162.018 52.7205 161.787 52.7852 161.52 52.8975C161.315 52.9836 160.749 53.2339 160.204 53.7795L165.86 59.4363C165.571 59.7254 165.293 59.9135 165.106 60.0261C164.911 60.1428 164.741 60.2216 164.621 60.2719C164.39 60.3692 164.205 60.4193 164.12 60.4407C164.023 60.4653 163.952 60.4784 163.92 60.4839C163.901 60.4871 163.888 60.4892 163.88 60.4904C163.872 60.4916 163.867 60.4922 163.867 60.4922C163.867 60.4922 163.87 60.4918 163.876 60.4911C163.883 60.4904 163.892 60.4895 163.904 60.4883C163.928 60.4859 163.961 60.4831 164.005 60.4798C164.092 60.4733 164.207 60.4664 164.352 60.4597C164.952 60.432 165.886 60.4159 167.192 60.4159V52.4159ZM160.204 53.7795C159.715 54.2684 159.469 54.7664 159.371 54.9776C159.253 55.2345 159.181 55.4592 159.139 55.6028C159.055 55.8897 159.007 56.1531 158.978 56.3284C158.919 56.6953 158.879 57.1098 158.848 57.5154C158.784 58.3487 158.735 59.4898 158.697 60.9007C158.621 63.7397 158.584 67.8842 158.584 73.3119H166.584C166.584 67.9024 166.621 63.8442 166.695 61.1152C166.731 59.7421 166.776 58.7578 166.824 58.1245C166.849 57.7968 166.87 57.6426 166.876 57.6055C166.88 57.5788 166.866 57.6814 166.817 57.8486C166.792 57.9323 166.738 58.1075 166.637 58.3252C166.558 58.4971 166.331 58.9661 165.86 59.4364L160.204 53.7795ZM158.584 73.3119C158.584 78.7897 158.745 83.2914 159.083 86.7705C159.4 90.0353 159.917 93.032 160.992 95.0033L168.016 91.1725C167.811 90.7972 167.368 89.3246 167.045 85.9974C166.743 82.8845 166.584 78.6715 166.584 73.3119H158.584ZM160.504 93.0879V93.1519H168.504V93.0879H160.504ZM160.504 93.1519C160.504 91.6748 161.327 90.7727 161.676 90.459C161.869 90.2857 162.034 90.1809 162.121 90.1295C162.213 90.0754 162.272 90.0493 162.282 90.0452C162.294 90.0398 162.219 90.0724 162.014 90.1301C161.819 90.1853 161.553 90.2501 161.204 90.3215L162.812 98.1583C163.724 97.9711 164.674 97.7291 165.478 97.3787C165.866 97.2097 166.461 96.9141 167.02 96.4129C167.577 95.9125 168.504 94.8211 168.504 93.1519H160.504ZM161.204 90.3215C159.643 90.6418 158.625 90.7519 158.04 90.7519V98.7519C159.417 98.7519 161.045 98.5208 162.812 98.1583L161.204 90.3215ZM158.04 90.7519C157.002 90.7519 156.51 90.5988 156.353 90.5283L153.07 97.8236C154.62 98.5211 156.347 98.7519 158.04 98.7519V90.7519ZM157.722 91.5419C158.273 92.1717 158.435 92.7891 158.436 92.7919C158.475 92.9207 158.478 92.9726 158.465 92.8901C158.44 92.7341 158.403 92.4076 158.368 91.8508C158.301 90.758 158.264 89.1159 158.264 86.8799H150.264C150.264 89.1666 150.301 91.0018 150.383 92.3411C150.424 93.0003 150.48 93.6284 150.567 94.1658C150.61 94.4299 150.674 94.7631 150.778 95.108C150.844 95.3268 151.076 96.0948 151.702 96.81L157.722 91.5419ZM182.082 54.9439L184.991 52.1974L184.99 52.1974L182.082 54.9439ZM181.698 61.1519L184.389 64.1117L184.396 64.1059L181.698 61.1519ZM175.682 61.3439L172.693 64.0014L172.771 64.0892L172.854 64.1724L175.682 61.3439ZM176.066 55.1359L173.305 52.2425L173.305 52.2425L176.066 55.1359ZM182.466 69.7279L178.467 69.6495L178.467 69.664L178.467 69.6786L182.466 69.7279ZM182.338 80.0959L178.339 80.0466L178.338 80.0712V80.0959H182.338ZM182.594 87.4559L178.618 87.8859L178.624 87.9462L178.632 88.0062L182.594 87.4559ZM184.258 91.8079H188.258V90.6126L187.603 89.6133L184.258 91.8079ZM181.634 93.8559L183.526 97.3806L183.526 97.3806L181.634 93.8559ZM176.002 93.3439L172.171 94.4933L172.171 94.4933L176.002 93.3439ZM175.234 89.6959L171.245 89.9914L171.251 90.0647L171.259 90.1377L175.234 89.6959ZM175.554 67.2319L173.089 64.0819L172.38 64.6372L171.977 65.4431L175.554 67.2319ZM182.53 66.4639L186.53 66.5424L186.559 65.0499L185.603 63.9032L182.53 66.4639ZM179.202 57.7919C179.287 57.7919 179.335 57.7987 179.353 57.8019C179.369 57.8049 179.36 57.8047 179.333 57.7938C179.305 57.7827 179.271 57.7653 179.237 57.7422C179.204 57.7192 179.183 57.6992 179.174 57.6904L184.99 52.1974C183.407 50.521 181.339 49.7919 179.202 49.7919V57.7919ZM179.174 57.6904C179.17 57.686 179.161 57.6746 179.15 57.658C179.14 57.6415 179.136 57.631 179.137 57.6325C179.137 57.6337 179.17 57.7241 179.17 57.9519H187.17C187.17 55.8803 186.536 53.8336 184.991 52.1974L179.174 57.6904ZM179.17 57.9519C179.17 57.9953 179.166 58.0141 179.166 58.0148C179.166 58.0148 179.167 58.0109 179.168 58.0083C179.174 57.9959 179.149 58.0632 179.001 58.198L184.396 64.1059C186.138 62.5149 187.17 60.4033 187.17 57.9519H179.17ZM179.008 58.1922C178.756 58.4214 178.633 58.4319 178.498 58.4319V66.4319C180.754 66.4319 182.764 65.5891 184.389 64.1117L179.008 58.1922ZM178.498 58.4319C178.42 58.4319 178.375 58.4258 178.358 58.4228C178.342 58.42 178.349 58.4197 178.372 58.4287C178.396 58.438 178.426 58.4525 178.455 58.4721C178.485 58.4915 178.504 58.5084 178.511 58.5155L172.854 64.1724C174.425 65.743 176.428 66.4319 178.498 66.4319V58.4319ZM178.672 58.6865C178.68 58.6953 178.689 58.7079 178.697 58.7214C178.705 58.7347 178.705 58.7385 178.701 58.7269C178.693 58.7038 178.658 58.5882 178.658 58.3359H170.658C170.658 60.3428 171.232 62.3581 172.693 64.0014L178.672 58.6865ZM178.658 58.3359C178.658 58.2808 178.664 58.2502 178.666 58.2384C178.668 58.2271 178.67 58.2224 178.672 58.2189C178.673 58.2151 178.68 58.1998 178.701 58.1716C178.721 58.1426 178.76 58.0943 178.828 58.0294L173.305 52.2425C171.618 53.852 170.658 55.9471 170.658 58.3359H178.658ZM178.828 58.0294C179 57.8652 179.104 57.8158 179.13 57.8045C179.148 57.7967 179.161 57.7919 179.202 57.7919V49.7919C176.889 49.7919 174.885 50.7335 173.305 52.2425L178.828 58.0294ZM178.467 69.6786L178.339 80.0466L186.338 80.1453L186.466 69.7773L178.467 69.6786ZM178.338 80.0959C178.338 83.4476 178.423 86.081 178.618 87.8859L186.571 87.026C186.425 85.6735 186.338 83.4002 186.338 80.0959H178.338ZM178.632 88.0062C178.932 90.1604 179.711 92.1686 180.914 94.0026L187.603 89.6133C187.014 88.7166 186.684 87.8234 186.556 86.9057L178.632 88.0062ZM180.258 91.8079C180.258 91.1749 180.42 90.6744 180.564 90.3517C180.706 90.0324 180.863 89.8139 180.953 89.6993C181.122 89.4854 181.233 89.415 181.141 89.4867C180.971 89.62 180.548 89.8996 179.743 90.3313L183.526 97.3806C184.471 96.8736 185.36 96.3425 186.064 95.7932C186.409 95.5235 186.848 95.1438 187.236 94.6526C187.566 94.2329 188.258 93.2354 188.258 91.8079H180.258ZM179.743 90.3313C178.26 91.1269 177.449 91.2639 177.154 91.2639V99.2639C179.335 99.2639 181.51 98.4623 183.526 97.3806L179.743 90.3313ZM177.154 91.2639C178.245 91.2639 179.024 91.7354 179.427 92.0711C179.801 92.3827 179.976 92.672 180.008 92.726C180.072 92.8311 179.993 92.7244 179.834 92.1945L172.171 94.4933C172.396 95.2435 172.701 96.0968 173.148 96.8419C173.411 97.279 174.637 99.2639 177.154 99.2639V91.2639ZM179.834 92.1945C179.509 91.1114 179.308 90.1334 179.21 89.2542L171.259 90.1377C171.417 91.5625 171.728 93.0165 172.171 94.4933L179.834 92.1945ZM179.224 89.4005C179.152 88.4365 179.106 84.75 179.106 78.0479H171.106C171.106 84.5725 171.146 88.6514 171.245 89.9914L179.224 89.4005ZM179.106 78.0479C179.106 74.7592 179.144 72.2693 179.215 70.5495C179.251 69.6834 179.293 69.0683 179.336 68.6679C179.346 68.5721 179.355 68.4977 179.363 68.4423C179.367 68.415 179.37 68.3942 179.373 68.3793C179.375 68.3643 179.377 68.3574 179.376 68.3575C179.376 68.3577 179.376 68.3603 179.375 68.3651C179.374 68.3698 179.372 68.3772 179.37 68.3872C179.366 68.406 179.357 68.4397 179.344 68.485C179.325 68.5524 179.264 68.7579 179.132 69.0208L171.977 65.4431C171.682 66.0316 171.567 66.6042 171.522 66.8364C171.46 67.1587 171.415 67.4974 171.381 67.8199C171.312 68.4703 171.261 69.2818 171.222 70.2184C171.144 72.1039 171.106 74.7233 171.106 78.0479H179.106ZM178.02 70.382C177.886 70.4864 177.944 70.386 178.454 70.2727C178.946 70.1634 179.687 70.0799 180.738 70.0799V62.0799C178.113 62.0799 175.194 62.4346 173.089 64.0819L178.02 70.382ZM180.738 70.0799C181.095 70.0799 181.175 70.1066 181.084 70.0871C181.032 70.076 180.844 70.0328 180.586 69.9109C180.335 69.7919 179.881 69.5328 179.458 69.0247L185.603 63.9032C184.612 62.714 183.295 62.3793 182.761 62.2647C182.072 62.1172 181.363 62.0799 180.738 62.0799V70.0799ZM178.531 66.3855L178.467 69.6495L186.466 69.8064L186.53 66.5424L178.531 66.3855ZM189.169 84.0639H193.169V84.0384L193.169 84.0129L189.169 84.0639ZM188.977 69.0239H184.977V69.0495L184.977 69.075L188.977 69.0239ZM189.297 64.6079L186.594 61.6593L186.53 61.7181L186.469 61.7795L189.297 64.6079ZM191.665 63.3279L193.02 67.0915L193.086 67.0678L193.151 67.0418L191.665 63.3279ZM196.209 62.9439L200.193 63.3061L200.209 63.1254V62.9439H196.209ZM196.465 68.4479L199.293 71.2764L199.45 71.1197L199.588 70.9467L196.465 68.4479ZM197.361 67.5519L200.037 70.5251L200.044 70.5184L200.052 70.5117L197.361 67.5519ZM199.857 65.8879L201.842 69.3609L201.861 69.3499L201.88 69.3387L199.857 65.8879ZM209.521 68.5119L206.044 70.49L209.143 75.9359L212.779 70.833L209.521 68.5119ZM223.281 66.7839L226.895 65.069L226.871 65.0182L226.845 64.9682L223.281 66.7839ZM225.393 74.3359L229.383 74.0575L229.381 74.0278L229.379 73.9982L225.393 74.3359ZM225.777 85.7279L229.775 85.8646L229.777 85.7963V85.7279H225.777ZM225.521 93.2159L221.523 93.0793L221.521 93.1476V93.2159H225.521ZM223.409 94.0479L222.693 90.1125L222.636 90.1229L222.579 90.135L223.409 94.0479ZM220.017 94.4959L219.399 98.448L219.706 98.4959H220.017V94.4959ZM217.969 94.1759L213.993 93.7342L213.571 97.5373L217.351 98.128L217.969 94.1759ZM218.545 78.3679L214.548 78.516L214.551 78.5954L214.557 78.6747L218.545 78.3679ZM218.097 74.9759L214.192 75.8437L214.196 75.8595L214.199 75.8754L218.097 74.9759ZM216.881 72.5439L214.053 75.3724L214.17 75.49L214.297 75.5975L216.881 72.5439ZM212.721 72.4799L214.94 75.8081L215.014 75.7585L215.086 75.7056L212.721 72.4799ZM211.313 73.7599L208.036 71.4661L207.955 71.5813L207.883 71.702L211.313 73.7599ZM210.929 74.5919H206.929V74.779L206.946 74.9653L210.929 74.5919ZM211.121 84.0639L215.116 84.2662L215.121 84.1651V84.0639H211.121ZM210.865 89.1199L206.87 88.9177L206.865 89.0187V89.1199H210.865ZM208.817 90.0159L208.08 86.0845L208.08 86.0845L208.817 90.0159ZM205.489 90.3999L204.871 94.352L205.178 94.3999H205.489V90.3999ZM203.441 90.0799L199.465 89.6382L199.043 93.4413L202.823 94.032L203.441 90.0799ZM203.505 74.0799L199.617 75.0185L199.636 75.0991L199.659 75.1788L203.505 74.0799ZM196.145 78.7519H192.145V78.7708L192.145 78.7897L196.145 78.7519ZM196.209 85.5359H200.209V85.5171L200.209 85.4982L196.209 85.5359ZM195.953 92.1279L198.723 95.0135L198.912 94.8317L199.076 94.6267L195.953 92.1279ZM188.721 93.4719L184.773 92.8292L184.721 93.1485V93.4719H188.721ZM193.169 84.0129L192.977 68.9729L184.977 69.075L185.169 84.115L193.169 84.0129ZM192.977 69.0239C192.977 67.6889 193.004 66.7519 193.046 66.161C193.069 65.8542 193.089 65.7401 193.087 65.7501C193.087 65.7513 193.063 65.8826 192.993 66.0802C192.957 66.1828 192.89 66.3553 192.778 66.5621C192.674 66.7564 192.471 67.0907 192.125 67.4364L186.469 61.7795C185.797 62.4508 185.531 63.1869 185.451 63.4137C185.334 63.7433 185.267 64.0459 185.227 64.2578C185.145 64.6891 185.099 65.1537 185.067 65.5828C185.004 66.4639 184.977 67.6283 184.977 69.0239H192.977ZM192 67.5566C191.955 67.5978 191.99 67.5545 192.175 67.4548C192.355 67.3575 192.628 67.2325 193.02 67.0915L190.31 59.5644C189.021 60.0286 187.667 60.6758 186.594 61.6593L192 67.5566ZM193.151 67.0418C193.824 66.7724 194.344 66.6879 194.737 66.6879V58.6879C193.168 58.6879 191.639 59.0301 190.179 59.614L193.151 67.0418ZM194.737 66.6879C195.173 66.6879 195.261 66.7111 195.156 66.6928C195.142 66.6904 194.753 66.6321 194.267 66.3783C193.886 66.1796 192.209 65.174 192.209 62.9439H200.209C200.209 60.6285 198.471 59.5482 197.967 59.2856C197.358 58.9678 196.785 58.8562 196.526 58.8111C195.93 58.7074 195.282 58.6879 194.737 58.6879V66.6879ZM192.225 62.5818C192.052 64.4915 191.953 66.0654 191.953 67.2319H199.953C199.953 66.4358 200.025 65.151 200.193 63.3061L192.225 62.5818ZM191.953 67.2319C191.953 67.7487 191.963 68.258 192 68.6825C192.016 68.8618 192.051 69.2253 192.154 69.6216C192.198 69.788 192.324 70.2515 192.634 70.7607C192.862 71.1348 193.918 72.7039 196.081 72.7039V64.7039C198.223 64.7039 199.259 66.2577 199.468 66.6011C199.759 67.0797 199.868 67.4972 199.895 67.6022C199.967 67.8759 199.976 68.0554 199.97 67.9894C199.964 67.9232 199.953 67.6965 199.953 67.2319H191.953ZM196.081 72.7039C197.326 72.7039 198.197 72.1436 198.46 71.9681C198.83 71.7214 199.114 71.4557 199.293 71.2764L193.637 65.6195C193.645 65.6109 193.78 65.4731 194.022 65.3117C194.148 65.2276 194.367 65.0941 194.667 64.974C194.959 64.8572 195.45 64.7039 196.081 64.7039V72.7039ZM199.588 70.9467C199.546 70.9995 199.551 70.987 199.645 70.8924C199.731 70.8066 199.859 70.6856 200.037 70.5251L194.685 64.5788C194.233 64.9861 193.728 65.466 193.341 65.9492L199.588 70.9467ZM200.052 70.5117C200.174 70.4005 200.677 70.0264 201.842 69.3609L197.872 62.415C196.648 63.1148 195.487 63.8501 194.67 64.5922L200.052 70.5117ZM201.88 69.3387C202.737 68.836 203.165 68.7999 203.249 68.7999V60.7999C201.285 60.7999 199.451 61.4892 197.834 62.4371L201.88 69.3387ZM203.249 68.7999C204.537 68.7999 205.324 69.2241 206.044 70.49L212.998 66.5338C210.902 62.8505 207.507 60.7999 203.249 60.7999V68.7999ZM212.779 70.833C214.8 67.9965 216.426 67.3919 217.585 67.3919V59.3919C212.856 59.3919 209.106 62.2007 206.263 66.1908L212.779 70.833ZM217.585 67.3919C218.33 67.3919 218.728 67.5467 218.946 67.6767C219.155 67.801 219.431 68.0396 219.717 68.5996L226.845 64.9682C225.978 63.267 224.73 61.8095 223.04 60.8032C221.359 59.8025 219.485 59.3919 217.585 59.3919V67.3919ZM219.667 68.4989C220.678 70.6277 221.238 72.6808 221.407 74.6737L229.379 73.9982C229.121 70.9564 228.274 67.9749 226.895 65.069L219.667 68.4989ZM221.403 74.6143C221.652 78.1851 221.777 81.8893 221.777 85.7279H229.777C229.777 81.7159 229.646 77.8255 229.383 74.0575L221.403 74.6143ZM221.779 85.5913L221.523 93.0793L229.519 93.3526L229.775 85.8646L221.779 85.5913ZM221.521 93.2159C221.521 91.5737 222.508 90.6248 222.856 90.3401C223.064 90.1699 223.241 90.0675 223.336 90.0165C223.437 89.9626 223.506 89.9344 223.527 89.9263C223.545 89.9192 223.325 89.9977 222.693 90.1125L224.124 97.9834C224.901 97.8422 225.737 97.654 226.459 97.3696C226.801 97.2349 227.37 96.983 227.922 96.5318C228.446 96.103 229.521 95.0075 229.521 93.2159H221.521ZM222.579 90.135C221.285 90.4094 220.466 90.4959 220.017 90.4959V98.4959C221.275 98.4959 222.717 98.2838 224.239 97.9609L222.579 90.135ZM220.634 90.5439L218.586 90.2239L217.351 98.128L219.399 98.448L220.634 90.5439ZM221.944 94.6177C222.421 90.3262 222.673 86.7488 222.673 83.9359H214.673C214.673 86.3285 214.455 89.5777 213.993 93.7342L221.944 94.6177ZM222.673 83.9359C222.673 81.3296 222.631 79.3381 222.533 78.0612L214.557 78.6747C214.629 79.6165 214.673 81.337 214.673 83.9359H222.673ZM222.542 78.2199C222.49 76.818 222.308 75.4357 221.995 74.0765L214.199 75.8754C214.398 76.7349 214.514 77.6139 214.548 78.516L222.542 78.2199ZM222.002 74.1082C221.665 72.5937 220.989 70.7803 219.465 69.4904L214.297 75.5975C214.072 75.4072 214.005 75.2559 214.023 75.2928C214.031 75.3087 214.055 75.3589 214.086 75.4532C214.118 75.5471 214.155 75.6754 214.192 75.8437L222.002 74.1082ZM219.709 69.7155C218.355 68.3607 216.63 67.7759 214.897 67.7759V75.7759C214.878 75.7759 214.748 75.7721 214.557 75.6982C214.357 75.6209 214.182 75.5015 214.053 75.3724L219.709 69.7155ZM214.897 67.7759C213.255 67.7759 211.697 68.2704 210.355 69.2543L215.086 75.7056C215.076 75.7132 215.037 75.7382 214.976 75.7577C214.917 75.777 214.883 75.7759 214.897 75.7759V67.7759ZM210.502 69.1517C209.627 69.7349 208.722 70.4863 208.036 71.4661L214.59 76.0538C214.537 76.1293 214.519 76.135 214.58 76.0797C214.639 76.0255 214.752 75.933 214.94 75.8081L210.502 69.1517ZM207.883 71.702C207.721 71.9725 207.543 72.287 207.393 72.6117C207.333 72.7412 206.929 73.56 206.929 74.5919H214.929C214.929 74.8963 214.892 75.1407 214.862 75.297C214.831 75.4594 214.794 75.5878 214.767 75.6725C214.716 75.8354 214.668 75.9404 214.657 75.9642C214.635 76.0115 214.649 75.974 214.743 75.8179L207.883 71.702ZM206.946 74.9653C207.053 76.1056 207.121 79.058 207.121 84.0639H215.121C215.121 79.1713 215.061 75.8089 214.911 74.2186L206.946 74.9653ZM207.126 83.8617L206.87 88.9177L214.86 89.3222L215.116 84.2662L207.126 83.8617ZM206.865 89.1199C206.865 87.7374 207.589 86.8363 208.001 86.4498C208.386 86.0895 208.72 85.9482 208.75 85.9353C208.83 85.9003 208.673 85.9732 208.08 86.0845L209.554 93.9474C210.326 93.8027 211.194 93.5982 211.956 93.2646C212.327 93.1023 212.918 92.8064 213.473 92.2861C214.056 91.7396 214.865 90.6731 214.865 89.1199H206.865ZM208.08 86.0845C206.827 86.3194 205.99 86.3999 205.489 86.3999V94.3999C206.694 94.3999 208.077 94.2245 209.554 93.9474L208.08 86.0845ZM206.106 86.4479L204.058 86.1279L202.823 94.032L204.871 94.352L206.106 86.4479ZM207.416 90.5217C207.814 86.9421 208.017 83.5718 208.017 80.4159H200.017C200.017 83.2334 199.836 86.3057 199.465 89.6382L207.416 90.5217ZM208.017 80.4159C208.017 77.3957 207.863 74.7726 207.351 72.9811L199.659 75.1788C199.83 75.7766 200.017 77.3775 200.017 80.4159H208.017ZM207.393 73.1414C207.076 71.8276 206.37 70.4644 205.044 69.4781C203.748 68.5144 202.28 68.2239 201.009 68.2239V76.2239C201.103 76.2239 200.734 76.2428 200.27 75.8978C199.776 75.5302 199.635 75.095 199.617 75.0185L207.393 73.1414ZM201.009 68.2239C198.036 68.2239 195.76 69.8189 194.257 72.0058L200.849 76.5381C201.066 76.2229 201.187 76.161 201.16 76.1771C201.146 76.1854 201.115 76.2009 201.072 76.2125C201.03 76.224 201.005 76.2239 201.009 76.2239V68.2239ZM194.257 72.0058C193.706 72.8074 193.214 73.6263 192.848 74.4416C192.501 75.2134 192.145 76.2477 192.145 77.4079H200.145C200.145 77.6492 200.107 77.7989 200.099 77.8288C200.091 77.862 200.097 77.8283 200.146 77.7183C200.249 77.4882 200.462 77.1018 200.849 76.5381L194.257 72.0058ZM192.145 77.4079V78.7519H200.145V77.4079H192.145ZM192.145 78.7897L192.209 85.5737L200.209 85.4982L200.145 78.7142L192.145 78.7897ZM192.209 85.5359C192.209 87.612 192.188 89.1449 192.148 90.1647C192.128 90.684 192.105 91.005 192.087 91.1735C192.078 91.2659 192.077 91.2334 192.099 91.1309C192.109 91.0811 192.14 90.9406 192.205 90.754C192.246 90.6357 192.415 90.1479 192.829 89.6292L199.076 94.6267C199.513 94.0814 199.702 93.5514 199.763 93.3754C199.848 93.1311 199.898 92.9174 199.927 92.779C199.986 92.4991 200.02 92.2274 200.043 92.0183C200.089 91.5842 200.119 91.0546 200.142 90.4752C200.188 89.2976 200.209 87.6412 200.209 85.5359H192.209ZM193.183 89.2424C193.386 89.0476 193.354 89.2041 192.582 89.3805C191.858 89.5459 190.769 89.6639 189.233 89.6639V97.6639C191.11 97.6639 192.848 97.526 194.364 97.1794C195.832 96.8438 197.453 96.2323 198.723 95.0135L193.183 89.2424ZM189.233 89.6639C189.264 89.6639 189.362 89.6649 189.505 89.6828C189.634 89.699 189.91 89.7419 190.253 89.8706C190.58 89.9932 191.189 90.2757 191.743 90.8985C192.37 91.6039 192.721 92.5205 192.721 93.4719H184.721C184.721 94.4873 185.094 95.46 185.763 96.2134C186.36 96.8842 187.032 97.2067 187.444 97.3613C188.216 97.6505 188.926 97.6639 189.233 97.6639V89.6639ZM192.669 94.1146C193.025 91.9285 193.169 88.5032 193.169 84.0639H185.169C185.169 88.4993 185.014 91.3461 184.773 92.8292L192.669 94.1146ZM237.997 79.8399V83.8399H238.053L238.109 83.8384L237.997 79.8399ZM243.309 77.2159L245.902 80.2621L245.921 80.2463L245.939 80.2302L243.309 77.2159ZM251.885 91.9999L254.127 95.3131L254.649 94.9596L255.038 94.4625L251.885 91.9999ZM234.285 68.7039L231.278 66.067L231.275 66.0699L234.285 68.7039ZM251.245 65.6319L249.087 68.9995L249.106 69.0118L249.125 69.0239L251.245 65.6319ZM250.285 79.1359L247.315 76.4574L247.302 76.4709L247.29 76.4846L250.285 79.1359ZM240.813 85.0879L239.524 81.3013L236.813 82.2242V85.0879H240.813ZM242.349 86.3679L241.085 90.1627L241.177 90.1935L241.271 90.2198L242.349 86.3679ZM253.165 85.0879L255.258 88.4972L255.66 88.2503L255.994 87.9164L253.165 85.0879ZM250.317 71.6479C250.317 70.3419 249.956 68.6461 248.554 67.3349C247.203 66.0706 245.547 65.7919 244.333 65.7919V73.7919C244.442 73.7919 243.779 73.8226 243.089 73.177C242.348 72.4844 242.317 71.7167 242.317 71.6479H250.317ZM244.333 65.7919C240.974 65.7919 238.356 67.5994 236.507 70.1045L242.944 74.8553C243.74 73.7764 244.194 73.7919 244.333 73.7919V65.7919ZM236.507 70.1045C234.612 72.6725 233.741 75.688 233.741 78.9439H241.741C241.741 77.1652 242.194 75.8713 242.944 74.8553L236.507 70.1045ZM233.741 78.9439C233.741 79.3388 233.76 80.0154 233.959 80.7148C234.057 81.0571 234.287 81.732 234.848 82.3871C235.512 83.1608 236.603 83.8399 237.997 83.8399V75.8399C239.307 75.8399 240.323 76.4818 240.922 77.1808C241.42 77.7612 241.596 78.3241 241.652 78.5171C241.766 78.9178 241.741 79.1464 241.741 78.9439H233.741ZM238.109 83.8384C241.009 83.7578 243.652 82.1773 245.902 80.2621L240.717 74.1698C238.957 75.6679 238.058 75.8367 237.886 75.8415L238.109 83.8384ZM245.939 80.2302C248.49 78.0051 250.317 75.1373 250.317 71.6479H242.317C242.317 72.0839 242.14 72.9282 240.68 74.2017L245.939 80.2302ZM249.644 88.6868C249.645 88.6865 249.533 88.7595 249.239 88.8607C248.949 88.9601 248.541 89.0668 247.988 89.1624C246.872 89.3554 245.352 89.4719 243.373 89.4719V97.4719C245.619 97.4719 247.63 97.3431 249.351 97.0454C251.013 96.758 252.724 96.2617 254.127 95.3131L249.644 88.6868ZM243.373 89.4719C239.982 89.4719 237.942 88.4938 236.621 87.0229L230.67 92.369C233.871 95.9328 238.317 97.4719 243.373 97.4719V89.4719ZM236.621 87.0229C235.165 85.4021 234.253 83.0851 234.253 79.6479H226.253C226.253 84.5735 227.603 88.9551 230.67 92.369L236.621 87.0229ZM234.253 79.6479C234.253 76.3559 235.27 73.6535 237.296 71.338L231.275 66.0699C227.925 69.8984 226.253 74.492 226.253 79.6479H234.253ZM237.293 71.3409C239.123 69.2539 241.753 68.0319 245.741 68.0319V60.0319C239.916 60.0319 234.909 61.9247 231.278 66.067L237.293 71.3409ZM245.741 68.0319C246.993 68.0319 248.077 68.3521 249.087 68.9995L253.404 62.2644C251.086 60.7784 248.5 60.0319 245.741 60.0319V68.0319ZM249.125 69.0239C249.282 69.1215 249.805 69.4363 249.805 71.2639H257.805C257.805 67.7156 256.623 64.2757 253.365 62.2399L249.125 69.0239ZM249.805 71.2639C249.805 72.635 249.218 74.3462 247.315 76.4574L253.256 81.8145C256.046 78.7203 257.805 75.1836 257.805 71.2639H249.805ZM247.29 76.4846C245.538 78.4645 243.021 80.1111 239.524 81.3013L242.103 88.8745C246.628 87.3341 250.425 85.0127 253.281 81.7873L247.29 76.4846ZM236.813 85.0879C236.813 86.8683 237.764 88.1377 238.637 88.8648C239.44 89.5341 240.356 89.9198 241.085 90.1627L243.614 82.5732C243.319 82.4747 243.467 82.4765 243.758 82.7191C243.925 82.8582 244.192 83.1214 244.421 83.5405C244.663 83.9838 244.813 84.5167 244.813 85.0879H236.813ZM241.271 90.2198C242.66 90.6088 244.068 90.8159 245.485 90.8159V82.8159C244.854 82.8159 244.172 82.7244 243.428 82.5161L241.271 90.2198ZM245.485 90.8159C249.14 90.8159 252.521 90.1767 255.258 88.4972L251.073 81.6786C250.056 82.3032 248.317 82.8159 245.485 82.8159V90.8159ZM255.994 87.9164C255.022 88.8884 253.889 89.0239 253.357 89.0239V81.0239C252.656 81.0239 251.394 81.2021 250.337 82.2595L255.994 87.9164ZM253.357 89.0239C251.576 89.0239 250.537 87.9174 250.167 87.4157C249.797 86.913 249.646 86.4515 249.599 86.3044C249.536 86.1051 249.507 85.9516 249.496 85.8861C249.482 85.8105 249.477 85.7603 249.475 85.7467C249.474 85.7333 249.485 85.8664 249.485 86.2399H257.485C257.485 85.8028 257.476 85.3279 257.431 84.9092C257.413 84.7367 257.368 84.3384 257.228 83.8954C257.165 83.6978 256.997 83.1982 256.608 82.6702C256.219 82.1432 255.161 81.0239 253.357 81.0239V89.0239ZM249.485 86.2399C249.485 88.1942 249.059 89.121 248.733 89.5374L255.038 94.4625C256.846 92.1482 257.485 89.235 257.485 86.2399H249.485ZM258.724 83.3599H262.724V83.3423L262.724 83.3247L258.724 83.3599ZM258.596 68.8319H254.596V68.8496L254.596 68.8672L258.596 68.8319ZM258.852 64.7999L261.68 67.6284L261.68 67.6284L258.852 64.7999ZM261.284 63.5839L262.42 67.4191L262.485 67.4L262.549 67.3787L261.284 63.5839ZM266.02 63.3279L269.995 63.7697L270.02 63.5495V63.3279H266.02ZM266.212 69.3439L269.04 72.1724L269.32 71.8923L269.54 71.5627L266.212 69.3439ZM266.596 68.8319L263.523 66.2712L263.497 66.3019L263.472 66.3332L266.596 68.8319ZM267.812 67.5519L265.083 64.6277L265.032 64.6748L264.984 64.7235L267.812 67.5519ZM269.86 66.0159L271.888 69.4637L271.966 69.4176L272.043 69.3679L269.86 66.0159ZM275.748 64.2239L279.155 62.1275L277.983 60.2239H275.748V64.2239ZM275.364 71.9679L271.909 69.9525L271.844 70.0638L271.786 70.1791L275.364 71.9679ZM275.108 72.4799L274.5 76.4334L277.382 76.8768L278.686 74.2688L275.108 72.4799ZM274.276 72.3519L274.884 68.3985L274.582 68.3519H274.276V72.3519ZM267.044 76.1279L263.759 73.8453L263.737 73.877L263.716 73.9091L267.044 76.1279ZM265.828 91.9359L268.604 94.8153L268.631 94.7901L268.656 94.7644L265.828 91.9359ZM258.276 93.4719L254.339 92.7653L254.276 93.1158V93.4719H258.276ZM262.724 83.3247L262.596 68.7967L254.596 68.8672L254.724 83.3952L262.724 83.3247ZM262.596 68.8319C262.596 67.5988 262.617 66.7336 262.652 66.1894C262.67 65.9056 262.686 65.8023 262.684 65.8145C262.684 65.8147 262.663 65.9468 262.6 66.1444C262.567 66.2459 262.503 66.4272 262.393 66.6465C262.293 66.8445 262.076 67.2323 261.68 67.6284L256.024 61.9715C255.291 62.7041 255.038 63.5271 254.984 63.6935C254.883 64.0071 254.828 64.2918 254.796 64.4813C254.73 64.8722 254.693 65.2943 254.668 65.6825C254.617 66.4823 254.596 67.5478 254.596 68.8319H262.596ZM261.68 67.6284C261.523 67.7861 261.45 67.7973 261.601 67.7216C261.742 67.6512 262.001 67.5433 262.42 67.4191L260.148 59.7487C258.797 60.1489 257.207 60.7877 256.024 61.9715L261.68 67.6284ZM262.549 67.3787C263.386 67.0996 264.021 67.0079 264.484 67.0079V59.0079C262.985 59.0079 261.486 59.3002 260.019 59.7892L262.549 67.3787ZM264.484 67.0079C264.93 67.0079 264.979 67.037 264.82 67.0039C264.773 66.9941 264.33 66.909 263.804 66.5799C263.231 66.2217 262.02 65.1824 262.02 63.3279H270.02C270.02 61.3668 268.745 60.2341 268.044 59.7959C267.389 59.3869 266.755 59.2351 266.452 59.172C265.781 59.0322 265.062 59.0079 264.484 59.0079V67.0079ZM262.044 62.8862C261.896 64.2196 261.828 65.6947 261.828 67.2959H269.828C269.828 65.9106 269.888 64.7403 269.995 63.7697L262.044 62.8862ZM261.828 67.2959C261.828 68.0388 261.838 68.6786 261.867 69.1628C261.88 69.3807 261.903 69.7046 261.961 70.0311C261.983 70.159 262.051 70.5329 262.227 70.9609C262.309 71.1607 262.517 71.6291 262.941 72.1099C263.379 72.6063 264.388 73.4719 265.956 73.4719V65.4719C267.513 65.4719 268.512 66.3319 268.94 66.8169C269.354 67.2864 269.552 67.7379 269.625 67.9149C269.782 68.2977 269.833 68.6035 269.839 68.6408C269.865 68.7859 269.862 68.8379 269.853 68.693C269.839 68.452 269.828 68.0037 269.828 67.2959H261.828ZM265.956 73.4719C267.476 73.4719 268.519 72.6937 269.04 72.1724L263.384 66.5155C263.734 66.1648 264.606 65.4719 265.956 65.4719V73.4719ZM269.54 71.5627C269.53 71.5786 269.537 71.5668 269.572 71.5199C269.605 71.4756 269.653 71.4134 269.719 71.3307L263.472 66.3332C263.276 66.5792 263.064 66.8546 262.884 67.1252L269.54 71.5627ZM269.669 71.3927C269.752 71.2928 270.038 70.9827 270.64 70.3804L264.984 64.7235C264.391 65.3158 263.866 65.8591 263.523 66.2712L269.669 71.3927ZM270.541 70.4762C270.976 70.0704 271.425 69.7361 271.888 69.4637L267.832 62.5682C266.844 63.1491 265.928 63.8388 265.083 64.6277L270.541 70.4762ZM272.043 69.3679C273.26 68.5751 274.47 68.2239 275.748 68.2239V60.2239C272.845 60.2239 270.129 61.0674 267.677 62.6639L272.043 69.3679ZM272.341 66.3203C272.265 66.1971 272.228 66.1043 272.213 66.0629C272.198 66.0217 272.2 66.0182 272.21 66.0644C272.23 66.1653 272.26 66.3923 272.26 66.7839H280.26C280.26 65.3862 280.08 63.6312 279.155 62.1275L272.341 66.3203ZM272.26 66.7839C272.26 67.852 272.193 68.6511 272.094 69.2227C271.991 69.8206 271.881 70 271.909 69.9525L278.819 73.9834C279.987 71.9811 280.26 69.3236 280.26 66.7839H272.26ZM271.786 70.1791L271.53 70.6911L278.686 74.2688L278.942 73.7568L271.786 70.1791ZM275.716 68.5265L274.884 68.3985L273.668 76.3054L274.5 76.4334L275.716 68.5265ZM274.276 68.3519C269.897 68.3519 266.258 70.2494 263.759 73.8453L270.329 78.4106C271.329 76.9718 272.511 76.3519 274.276 76.3519V68.3519ZM263.716 73.9091C263.301 74.5315 262.915 75.1854 262.621 75.8474C262.351 76.4553 262.02 77.3697 262.02 78.4319H270.02C270.02 78.7364 269.971 78.9471 269.949 79.0306C269.925 79.1193 269.91 79.1448 269.931 79.0965C269.951 79.0514 269.993 78.9648 270.069 78.8325C270.144 78.7016 270.243 78.5404 270.372 78.3467L263.716 73.9091ZM262.02 78.4319V84.0639H270.02V78.4319H262.02ZM262.02 84.0639C262.02 86.6158 262.004 88.5125 261.973 89.7744C261.958 90.4135 261.939 90.8414 261.922 91.0935C261.912 91.2305 261.908 91.2419 261.917 91.1817C261.92 91.1606 261.94 91.0219 261.992 90.8302C262.018 90.7354 262.073 90.5466 262.174 90.3161C262.248 90.1459 262.485 89.6222 263 89.1075L268.656 94.7644C269.179 94.2417 269.424 93.7051 269.506 93.5172C269.614 93.2689 269.677 93.0575 269.71 92.9352C269.778 92.6885 269.812 92.4753 269.829 92.3602C269.866 92.1119 269.888 91.8574 269.902 91.6503C269.933 91.2145 269.954 90.6424 269.971 89.9695C270.004 88.6074 270.02 86.6321 270.02 84.0639H262.02ZM263.051 89.0566C263.143 88.9686 262.999 89.1557 262.218 89.3472C261.462 89.5329 260.346 89.6639 258.788 89.6639V97.6639C260.729 97.6639 262.535 97.507 264.125 97.1166C265.692 96.7322 267.319 96.0553 268.604 94.8153L263.051 89.0566ZM258.788 89.6639C258.819 89.6639 258.917 89.6649 259.06 89.6828C259.189 89.699 259.465 89.7419 259.808 89.8706C260.135 89.9932 260.744 90.2757 261.298 90.8985C261.925 91.6039 262.276 92.5205 262.276 93.4719H254.276C254.276 94.4873 254.649 95.46 255.318 96.2134C255.915 96.8842 256.587 97.2067 256.999 97.3613C257.771 97.6505 258.481 97.6639 258.788 97.6639V89.6639ZM262.213 94.1786C262.585 92.1055 262.724 88.3763 262.724 83.3599H254.724C254.724 88.4982 254.564 91.5104 254.339 92.7653L262.213 94.1786Z" fill="black" mask="url(#path-1-outside-1_45_9236)"/>
<path d="M29.0055 22.5769C35.8294 8.60359 53.2115 22.3277 42.5581 34.3632C45.5835 38.2617 51.4555 47.7707 46.8688 52.6876C42.2929 57.3293 36.8537 61.7058 30.7767 62.4347C26.1605 62.8589 25.1854 56.9852 23.8451 53.0694C23.0408 50.636 22.4461 48.1019 21.6025 45.6913C11.1676 50.7524 7.85692 36.9431 16.4835 30.929C16.5963 30.8595 16.7086 30.6747 16.732 30.5283C17.5157 23.9431 23.9943 20.0903 29.0055 22.5769ZM19.5572 29.7384C20.9208 29.4118 25.6562 29.8492 24.5881 32.4418C24.3203 32.9847 23.7942 33.2513 23.2514 33.1094C19.3868 31.3607 14.9442 34.4029 14.3537 39.2692C13.6201 46.2566 22.7905 43.5923 23.8791 38.5735C24.3912 36.6937 26.726 36.9859 26.6071 38.9733C26.296 40.9054 25.1944 42.5477 23.9435 43.8489C23.5162 44.2869 24.0665 45.0555 24.1681 45.5571C25.3329 48.7522 26.3348 52.0288 27.3799 55.2835C27.4907 55.6327 27.6232 55.7481 27.967 55.6724C34.0692 54.3747 39.956 51.0511 44.1749 45.5043C45.0335 44.3543 45.0538 44.3685 44.4985 43.0497C43.8833 41.589 43.2356 40.1187 42.1303 39.1091C41.3847 38.428 40.8592 37.5727 40.2786 36.7479C40.1248 36.4486 39.9864 36.336 39.6741 36.5209C38.2721 37.2688 36.791 37.6131 35.2833 37.7434C33.4839 37.9033 33.26 34.9618 35.0705 34.5758C40.6237 34.4848 45.617 27.7612 41.7862 22.249C39.2426 19.0152 33.8934 18.8416 31.4138 23.5098C30.6934 24.4036 33.2832 25.509 33.4254 29.324C33.4849 30.2168 32.9672 30.995 32.2682 31.1489C31.4421 31.3502 30.7073 30.5276 30.6404 29.5369C29.5911 23.4079 21.1674 23.8398 19.5572 29.7384ZM45.4857 46.4769C40.6824 52.3435 34.9047 55.8714 28.1932 57.3683C30.5539 62.8872 39.8333 55.0527 42.8231 52.6877C44.5538 51.2116 46.1992 49.1212 45.4857 46.4769Z" fill="black"/>
<path d="M19.5571 29.7382C21.1678 23.841 29.5907 23.4062 30.6403 29.5367C30.7065 30.5292 31.4425 31.3482 32.268 31.1486C32.967 30.9948 33.4847 30.2166 33.4254 29.3237C33.2783 25.479 30.7017 24.4421 31.4135 23.5097C33.8932 18.8414 39.2424 19.015 41.7862 22.249C45.6105 27.7739 40.6329 34.4754 35.0701 34.5753C33.2557 34.9628 33.488 37.9036 35.2832 37.7432C36.7908 37.6129 38.2719 37.2687 39.6739 36.5207C39.9794 36.3358 40.1322 36.4486 40.2783 36.7478C40.859 37.5724 41.3845 38.4279 42.1301 39.1089C43.2354 40.1186 43.8831 41.5888 44.4982 43.0496C45.0536 44.3683 45.0332 44.3541 44.1746 45.5041C39.9566 51.0512 34.0682 54.3745 27.9668 55.6723C27.6228 55.748 27.4904 55.6326 27.3796 55.2834C26.2464 51.5797 24.9693 47.9414 23.7675 44.2747C23.7405 44.1614 23.8465 43.9466 23.9433 43.8487C25.1936 42.5485 26.2961 40.9047 26.6069 38.9732C26.7277 36.9837 24.3871 36.6967 23.8791 38.5736C22.7915 43.5919 13.618 46.2565 14.353 39.2689C14.9454 34.4035 19.3846 31.3595 23.2513 33.1094C23.794 33.2512 24.32 32.9846 24.5878 32.4416C25.656 29.8576 20.9373 29.4096 19.5571 29.7382Z" fill="#FAFAFA"/>
<path d="M45.4858 46.4769C46.1978 49.1222 44.5551 51.2106 42.823 52.6873C39.8343 55.0485 30.5631 62.8883 28.1932 57.3682C34.9047 55.8714 40.6825 52.3435 45.4858 46.4769Z" fill="white"/>
</svg>
